# Blender 4.2.1 LTS
# www.blender.org
mtllib counterspell_blue.mtl
o counterspell-blue-og.bmp
v 1.300000 0.000000 0.000000
v 1.400000 0.000000 0.000000
v 1.400000 0.000000 -0.100000
v 1.300000 0.000000 -0.100000
v 1.300000 0.000000 -0.100000
v 1.400000 0.000000 -0.100000
v 1.400000 0.000000 -0.200000
v 1.300000 0.000000 -0.200000
v 1.300000 0.000000 -0.400000
v 1.400000 0.000000 -0.400000
v 1.400000 0.000000 -0.500000
v 1.300000 0.000000 -0.500000
v 1.300000 0.000000 -0.500000
v 1.400000 0.000000 -0.500000
v 1.400000 0.000000 -0.600000
v 1.300000 0.000000 -0.600000
v 1.300000 0.000000 -0.600000
v 1.400000 0.000000 -0.600000
v 1.400000 0.000000 -0.700000
v 1.300000 0.000000 -0.700000
v 1.200000 0.000000 -0.700000
v 1.300000 0.000000 -0.700000
v 1.300000 0.000000 -0.800000
v 1.200000 0.000000 -0.800000
v 1.200000 0.000000 -0.800000
v 1.300000 0.000000 -0.800000
v 1.300000 0.000000 -0.900000
v 1.200000 0.000000 -0.900000
v 1.100000 0.000000 -0.900000
v 1.200000 0.000000 -0.900000
v 1.200000 0.000000 -1.000000
v 1.100000 0.000000 -1.000000
v 1.500000 0.000000 -0.900000
v 1.600000 0.000000 -0.900000
v 1.600000 0.000000 -1.000000
v 1.500000 0.000000 -1.000000
v 1.100000 0.000000 -1.000000
v 1.200000 0.000000 -1.000000
v 1.200000 0.000000 -1.100000
v 1.100000 0.000000 -1.100000
v 1.000000 0.000000 -1.200000
v 1.100000 0.000000 -1.200000
v 1.100000 0.000000 -1.300000
v 1.000000 0.000000 -1.300000
v 1.600000 0.000000 -1.200000
v 1.700000 0.000000 -1.200000
v 1.700000 0.000000 -1.300000
v 1.600000 0.000000 -1.300000
v 0.900000 0.000000 -1.300000
v 1.000000 0.000000 -1.300000
v 1.000000 0.000000 -1.400000
v 0.900000 0.000000 -1.400000
v 0.600000 0.000000 -1.400000
v 0.700000 0.000000 -1.400000
v 0.700000 0.000000 -1.500000
v 0.600000 0.000000 -1.500000
v 1.700000 0.000000 -1.400000
v 1.800000 0.000000 -1.400000
v 1.800000 0.000000 -1.500000
v 1.700000 0.000000 -1.500000
v 0.400000 0.000000 -1.500000
v 0.500000 0.000000 -1.500000
v 0.500000 0.000000 -1.600000
v 0.400000 0.000000 -1.600000
v 0.300000 0.000000 -1.600000
v 0.400000 0.000000 -1.600000
v 0.400000 0.000000 -1.700000
v 0.300000 0.000000 -1.700000
v 1.900000 0.000000 -1.600000
v 2.000000 0.000000 -1.600000
v 2.000000 0.000000 -1.700000
v 1.900000 0.000000 -1.700000
v 0.000000 0.000000 -1.700000
v 0.100000 0.000000 -1.700000
v 0.100000 0.000000 -1.800000
v 0.000000 0.000000 -1.800000
v 0.100000 0.000000 -1.700000
v 0.200000 0.000000 -1.700000
v 0.200000 0.000000 -1.800000
v 0.100000 0.000000 -1.800000
v 0.200000 0.000000 -1.700000
v 0.300000 0.000000 -1.700000
v 0.300000 0.000000 -1.800000
v 0.200000 0.000000 -1.800000
v 2.000000 0.000000 -1.700000
v 2.100000 0.000000 -1.700000
v 2.100000 0.000000 -1.800000
v 2.000000 0.000000 -1.800000
v 0.300000 0.000000 -1.800000
v 0.400000 0.000000 -1.800000
v 0.400000 0.000000 -1.900000
v 0.300000 0.000000 -1.900000
v 1.900000 0.000000 -1.800000
v 2.000000 0.000000 -1.800000
v 2.000000 0.000000 -1.900000
v 1.900000 0.000000 -1.900000
v 0.600000 0.000000 -1.900000
v 0.700000 0.000000 -1.900000
v 0.700000 0.000000 -2.000000
v 0.600000 0.000000 -2.000000
v 0.700000 0.000000 -1.900000
v 0.800000 0.000000 -1.900000
v 0.800000 0.000000 -2.000000
v 0.700000 0.000000 -2.000000
v 0.800000 0.000000 -2.000000
v 0.900000 0.000000 -2.000000
v 0.900000 0.000000 -2.100000
v 0.800000 0.000000 -2.100000
v 1.700000 0.000000 -2.000000
v 1.800000 0.000000 -2.000000
v 1.800000 0.000000 -2.100000
v 1.700000 0.000000 -2.100000
v 1.000000 0.000000 -2.100000
v 1.100000 0.000000 -2.100000
v 1.100000 0.000000 -2.200000
v 1.000000 0.000000 -2.200000
v 1.600000 0.000000 -2.100000
v 1.700000 0.000000 -2.100000
v 1.700000 0.000000 -2.200000
v 1.600000 0.000000 -2.200000
v 1.000000 0.000000 -2.200000
v 1.100000 0.000000 -2.200000
v 1.100000 0.000000 -2.300000
v 1.000000 0.000000 -2.300000
v 1.100000 0.000000 -2.300000
v 1.200000 0.000000 -2.300000
v 1.200000 0.000000 -2.400000
v 1.100000 0.000000 -2.400000
v 1.600000 0.000000 -2.300000
v 1.700000 0.000000 -2.300000
v 1.700000 0.000000 -2.400000
v 1.600000 0.000000 -2.400000
v 1.200000 0.000000 -2.400000
v 1.300000 0.000000 -2.400000
v 1.300000 0.000000 -2.500000
v 1.200000 0.000000 -2.500000
v 1.200000 0.000000 -2.500000
v 1.300000 0.000000 -2.500000
v 1.300000 0.000000 -2.600000
v 1.200000 0.000000 -2.600000
v 1.300000 0.000000 -2.600000
v 1.400000 0.000000 -2.600000
v 1.400000 0.000000 -2.700000
v 1.300000 0.000000 -2.700000
v 1.300000 0.000000 -2.900000
v 1.400000 0.000000 -2.900000
v 1.400000 0.000000 -3.000000
v 1.300000 0.000000 -3.000000
v 1.300000 0.000000 -3.000000
v 1.400000 0.000000 -3.000000
v 1.400000 0.000000 -3.100000
v 1.300000 0.000000 -3.100000
v 1.400000 0.000000 -3.100000
v 1.500000 0.000000 -3.100000
v 1.500000 0.000000 -3.200000
v 1.400000 0.000000 -3.200000
v 1.400000 0.000000 -3.300000
v 1.500000 0.000000 -3.300000
v 1.500000 0.000000 -3.400000
v 1.400000 0.000000 -3.400000
v 1.300000 0.000000 0.000000
v 1.300000 0.000000 -0.100000
v 1.400000 0.000000 0.000000
v 1.400000 0.000000 -0.100000
v 1.300000 0.000000 -0.100000
v 1.300000 0.000000 -0.200000
v 1.400000 0.000000 -0.100000
v 1.400000 0.000000 -0.200000
v 1.300000 0.000000 -0.400000
v 1.300000 0.000000 -0.500000
v 1.400000 0.000000 -0.400000
v 1.400000 0.000000 -0.500000
v 1.300000 0.000000 -0.500000
v 1.300000 0.000000 -0.600000
v 1.400000 0.000000 -0.500000
v 1.400000 0.000000 -0.600000
v 1.300000 0.000000 -0.600000
v 1.300000 0.000000 -0.700000
v 1.400000 0.000000 -0.600000
v 1.400000 0.000000 -0.700000
v 1.200000 0.000000 -0.700000
v 1.200000 0.000000 -0.800000
v 1.300000 0.000000 -0.700000
v 1.300000 0.000000 -0.800000
v 1.200000 0.000000 -0.800000
v 1.200000 0.000000 -0.900000
v 1.300000 0.000000 -0.800000
v 1.300000 0.000000 -0.900000
v 1.100000 0.000000 -0.900000
v 1.100000 0.000000 -1.000000
v 1.200000 0.000000 -0.900000
v 1.200000 0.000000 -1.000000
v 1.500000 0.000000 -0.900000
v 1.500000 0.000000 -1.000000
v 1.600000 0.000000 -0.900000
v 1.600000 0.000000 -1.000000
v 1.100000 0.000000 -1.000000
v 1.100000 0.000000 -1.100000
v 1.200000 0.000000 -1.000000
v 1.200000 0.000000 -1.100000
v 1.000000 0.000000 -1.200000
v 1.000000 0.000000 -1.300000
v 1.100000 0.000000 -1.200000
v 1.100000 0.000000 -1.300000
v 1.600000 0.000000 -1.200000
v 1.600000 0.000000 -1.300000
v 1.700000 0.000000 -1.200000
v 1.700000 0.000000 -1.300000
v 0.900000 0.000000 -1.300000
v 0.900000 0.000000 -1.400000
v 1.000000 0.000000 -1.300000
v 1.000000 0.000000 -1.400000
v 0.600000 0.000000 -1.400000
v 0.600000 0.000000 -1.500000
v 0.700000 0.000000 -1.400000
v 0.700000 0.000000 -1.500000
v 1.700000 0.000000 -1.400000
v 1.700000 0.000000 -1.500000
v 1.800000 0.000000 -1.400000
v 1.800000 0.000000 -1.500000
v 0.400000 0.000000 -1.500000
v 0.400000 0.000000 -1.600000
v 0.500000 0.000000 -1.500000
v 0.500000 0.000000 -1.600000
v 0.300000 0.000000 -1.600000
v 0.300000 0.000000 -1.700000
v 0.400000 0.000000 -1.600000
v 0.400000 0.000000 -1.700000
v 1.900000 0.000000 -1.600000
v 1.900000 0.000000 -1.700000
v 2.000000 0.000000 -1.600000
v 2.000000 0.000000 -1.700000
v 0.000000 0.000000 -1.700000
v 0.000000 0.000000 -1.800000
v 0.100000 0.000000 -1.700000
v 0.100000 0.000000 -1.800000
v 0.100000 0.000000 -1.700000
v 0.100000 0.000000 -1.800000
v 0.200000 0.000000 -1.700000
v 0.200000 0.000000 -1.800000
v 0.200000 0.000000 -1.700000
v 0.200000 0.000000 -1.800000
v 0.300000 0.000000 -1.700000
v 0.300000 0.000000 -1.800000
v 2.000000 0.000000 -1.700000
v 2.000000 0.000000 -1.800000
v 2.100000 0.000000 -1.700000
v 2.100000 0.000000 -1.800000
v 0.300000 0.000000 -1.800000
v 0.300000 0.000000 -1.900000
v 0.400000 0.000000 -1.800000
v 0.400000 0.000000 -1.900000
v 1.900000 0.000000 -1.800000
v 1.900000 0.000000 -1.900000
v 2.000000 0.000000 -1.800000
v 2.000000 0.000000 -1.900000
v 0.600000 0.000000 -1.900000
v 0.600000 0.000000 -2.000000
v 0.700000 0.000000 -1.900000
v 0.700000 0.000000 -2.000000
v 0.700000 0.000000 -1.900000
v 0.700000 0.000000 -2.000000
v 0.800000 0.000000 -1.900000
v 0.800000 0.000000 -2.000000
v 0.800000 0.000000 -2.000000
v 0.800000 0.000000 -2.100000
v 0.900000 0.000000 -2.000000
v 0.900000 0.000000 -2.100000
v 1.700000 0.000000 -2.000000
v 1.700000 0.000000 -2.100000
v 1.800000 0.000000 -2.000000
v 1.800000 0.000000 -2.100000
v 1.000000 0.000000 -2.100000
v 1.000000 0.000000 -2.200000
v 1.100000 0.000000 -2.100000
v 1.100000 0.000000 -2.200000
v 1.600000 0.000000 -2.100000
v 1.600000 0.000000 -2.200000
v 1.700000 0.000000 -2.100000
v 1.700000 0.000000 -2.200000
v 1.000000 0.000000 -2.200000
v 1.000000 0.000000 -2.300000
v 1.100000 0.000000 -2.200000
v 1.100000 0.000000 -2.300000
v 1.100000 0.000000 -2.300000
v 1.100000 0.000000 -2.400000
v 1.200000 0.000000 -2.300000
v 1.200000 0.000000 -2.400000
v 1.600000 0.000000 -2.300000
v 1.600000 0.000000 -2.400000
v 1.700000 0.000000 -2.300000
v 1.700000 0.000000 -2.400000
v 1.200000 0.000000 -2.400000
v 1.200000 0.000000 -2.500000
v 1.300000 0.000000 -2.400000
v 1.300000 0.000000 -2.500000
v 1.200000 0.000000 -2.500000
v 1.200000 0.000000 -2.600000
v 1.300000 0.000000 -2.500000
v 1.300000 0.000000 -2.600000
v 1.300000 0.000000 -2.600000
v 1.300000 0.000000 -2.700000
v 1.400000 0.000000 -2.600000
v 1.400000 0.000000 -2.700000
v 1.300000 0.000000 -2.900000
v 1.300000 0.000000 -3.000000
v 1.400000 0.000000 -2.900000
v 1.400000 0.000000 -3.000000
v 1.300000 0.000000 -3.000000
v 1.300000 0.000000 -3.100000
v 1.400000 0.000000 -3.000000
v 1.400000 0.000000 -3.100000
v 1.400000 0.000000 -3.100000
v 1.400000 0.000000 -3.200000
v 1.500000 0.000000 -3.100000
v 1.500000 0.000000 -3.200000
v 1.400000 0.000000 -3.300000
v 1.400000 0.000000 -3.400000
v 1.500000 0.000000 -3.300000
v 1.500000 0.000000 -3.400000
v 1.300000 0.060000 0.000000
v 1.300000 0.060000 -0.100000
v 1.400000 0.060000 0.000000
v 1.400000 0.060000 -0.100000
v 1.300000 0.060000 -0.100000
v 1.300000 0.060000 -0.200000
v 1.400000 0.060000 -0.100000
v 1.400000 0.060000 -0.200000
v 1.300000 0.060000 -0.400000
v 1.300000 0.060000 -0.500000
v 1.400000 0.060000 -0.400000
v 1.400000 0.060000 -0.500000
v 1.300000 0.060000 -0.500000
v 1.300000 0.060000 -0.600000
v 1.400000 0.060000 -0.500000
v 1.400000 0.060000 -0.600000
v 1.300000 0.060000 -0.600000
v 1.300000 0.060000 -0.700000
v 1.400000 0.060000 -0.600000
v 1.400000 0.060000 -0.700000
v 1.200000 0.060000 -0.700000
v 1.200000 0.060000 -0.800000
v 1.300000 0.060000 -0.700000
v 1.300000 0.060000 -0.800000
v 1.200000 0.060000 -0.800000
v 1.200000 0.060000 -0.900000
v 1.300000 0.060000 -0.800000
v 1.300000 0.060000 -0.900000
v 1.100000 0.060000 -0.900000
v 1.100000 0.060000 -1.000000
v 1.200000 0.060000 -0.900000
v 1.200000 0.060000 -1.000000
v 1.500000 0.060000 -0.900000
v 1.500000 0.060000 -1.000000
v 1.600000 0.060000 -0.900000
v 1.600000 0.060000 -1.000000
v 1.100000 0.060000 -1.000000
v 1.100000 0.060000 -1.100000
v 1.200000 0.060000 -1.000000
v 1.200000 0.060000 -1.100000
v 1.000000 0.060000 -1.200000
v 1.000000 0.060000 -1.300000
v 1.100000 0.060000 -1.200000
v 1.100000 0.060000 -1.300000
v 1.600000 0.060000 -1.200000
v 1.600000 0.060000 -1.300000
v 1.700000 0.060000 -1.200000
v 1.700000 0.060000 -1.300000
v 0.900000 0.060000 -1.300000
v 0.900000 0.060000 -1.400000
v 1.000000 0.060000 -1.300000
v 1.000000 0.060000 -1.400000
v 0.600000 0.060000 -1.400000
v 0.600000 0.060000 -1.500000
v 0.700000 0.060000 -1.400000
v 0.700000 0.060000 -1.500000
v 1.700000 0.060000 -1.400000
v 1.700000 0.060000 -1.500000
v 1.800000 0.060000 -1.400000
v 1.800000 0.060000 -1.500000
v 0.400000 0.060000 -1.500000
v 0.400000 0.060000 -1.600000
v 0.500000 0.060000 -1.500000
v 0.500000 0.060000 -1.600000
v 0.300000 0.060000 -1.600000
v 0.300000 0.060000 -1.700000
v 0.400000 0.060000 -1.600000
v 0.400000 0.060000 -1.700000
v 1.900000 0.060000 -1.600000
v 1.900000 0.060000 -1.700000
v 2.000000 0.060000 -1.600000
v 2.000000 0.060000 -1.700000
v 0.000000 0.060000 -1.700000
v 0.000000 0.060000 -1.800000
v 0.100000 0.060000 -1.700000
v 0.100000 0.060000 -1.800000
v 0.100000 0.060000 -1.700000
v 0.100000 0.060000 -1.800000
v 0.200000 0.060000 -1.700000
v 0.200000 0.060000 -1.800000
v 0.200000 0.060000 -1.700000
v 0.200000 0.060000 -1.800000
v 0.300000 0.060000 -1.700000
v 0.300000 0.060000 -1.800000
v 2.000000 0.060000 -1.700000
v 2.000000 0.060000 -1.800000
v 2.100000 0.060000 -1.700000
v 2.100000 0.060000 -1.800000
v 0.300000 0.060000 -1.800000
v 0.300000 0.060000 -1.900000
v 0.400000 0.060000 -1.800000
v 0.400000 0.060000 -1.900000
v 1.900000 0.060000 -1.800000
v 1.900000 0.060000 -1.900000
v 2.000000 0.060000 -1.800000
v 2.000000 0.060000 -1.900000
v 0.600000 0.060000 -1.900000
v 0.600000 0.060000 -2.000000
v 0.700000 0.060000 -1.900000
v 0.700000 0.060000 -2.000000
v 0.700000 0.060000 -1.900000
v 0.700000 0.060000 -2.000000
v 0.800000 0.060000 -1.900000
v 0.800000 0.060000 -2.000000
v 0.800000 0.060000 -2.000000
v 0.800000 0.060000 -2.100000
v 0.900000 0.060000 -2.000000
v 0.900000 0.060000 -2.100000
v 1.700000 0.060000 -2.000000
v 1.700000 0.060000 -2.100000
v 1.800000 0.060000 -2.000000
v 1.800000 0.060000 -2.100000
v 1.000000 0.060000 -2.100000
v 1.000000 0.060000 -2.200000
v 1.100000 0.060000 -2.100000
v 1.100000 0.060000 -2.200000
v 1.600000 0.060000 -2.100000
v 1.600000 0.060000 -2.200000
v 1.700000 0.060000 -2.100000
v 1.700000 0.060000 -2.200000
v 1.000000 0.060000 -2.200000
v 1.000000 0.060000 -2.300000
v 1.100000 0.060000 -2.200000
v 1.100000 0.060000 -2.300000
v 1.100000 0.060000 -2.300000
v 1.100000 0.060000 -2.400000
v 1.200000 0.060000 -2.300000
v 1.200000 0.060000 -2.400000
v 1.600000 0.060000 -2.300000
v 1.600000 0.060000 -2.400000
v 1.700000 0.060000 -2.300000
v 1.700000 0.060000 -2.400000
v 1.200000 0.060000 -2.400000
v 1.200000 0.060000 -2.500000
v 1.300000 0.060000 -2.400000
v 1.300000 0.060000 -2.500000
v 1.200000 0.060000 -2.500000
v 1.200000 0.060000 -2.600000
v 1.300000 0.060000 -2.500000
v 1.300000 0.060000 -2.600000
v 1.300000 0.060000 -2.600000
v 1.300000 0.060000 -2.700000
v 1.400000 0.060000 -2.600000
v 1.400000 0.060000 -2.700000
v 1.300000 0.060000 -2.900000
v 1.300000 0.060000 -3.000000
v 1.400000 0.060000 -2.900000
v 1.400000 0.060000 -3.000000
v 1.300000 0.060000 -3.000000
v 1.300000 0.060000 -3.100000
v 1.400000 0.060000 -3.000000
v 1.400000 0.060000 -3.100000
v 1.400000 0.060000 -3.100000
v 1.400000 0.060000 -3.200000
v 1.500000 0.060000 -3.100000
v 1.500000 0.060000 -3.200000
v 1.400000 0.060000 -3.300000
v 1.400000 0.060000 -3.400000
v 1.500000 0.060000 -3.300000
v 1.500000 0.060000 -3.400000
vn -0.0000 -1.0000 -0.0000
vn -0.0000 -0.0000 -1.0000
vn 1.0000 -0.0000 -0.0000
vn -0.0000 -0.0000 1.0000
vn -1.0000 -0.0000 -0.0000
vn -0.0000 1.0000 -0.0000
s 0
usemtl pixel_art_41DDFFFF.001
f 1//1 4//1 3//1 2//1
f 5//1 8//1 7//1 6//1
f 9//1 12//1 11//1 10//1
f 13//1 16//1 15//1 14//1
f 17//1 20//1 19//1 18//1
f 21//1 24//1 23//1 22//1
f 25//1 28//1 27//1 26//1
f 29//1 32//1 31//1 30//1
f 33//1 36//1 35//1 34//1
f 37//1 40//1 39//1 38//1
f 41//1 44//1 43//1 42//1
f 45//1 48//1 47//1 46//1
f 49//1 52//1 51//1 50//1
f 53//1 56//1 55//1 54//1
f 57//1 60//1 59//1 58//1
f 61//1 64//1 63//1 62//1
f 65//1 68//1 67//1 66//1
f 69//1 72//1 71//1 70//1
f 73//1 76//1 75//1 74//1
f 77//1 80//1 79//1 78//1
f 81//1 84//1 83//1 82//1
f 85//1 88//1 87//1 86//1
f 89//1 92//1 91//1 90//1
f 93//1 96//1 95//1 94//1
f 97//1 100//1 99//1 98//1
f 101//1 104//1 103//1 102//1
f 105//1 108//1 107//1 106//1
f 109//1 112//1 111//1 110//1
f 113//1 116//1 115//1 114//1
f 117//1 120//1 119//1 118//1
f 121//1 124//1 123//1 122//1
f 125//1 128//1 127//1 126//1
f 129//1 132//1 131//1 130//1
f 133//1 136//1 135//1 134//1
f 137//1 140//1 139//1 138//1
f 141//1 144//1 143//1 142//1
f 145//1 148//1 147//1 146//1
f 149//1 152//1 151//1 150//1
f 153//1 156//1 155//1 154//1
f 157//1 160//1 159//1 158//1
f 256//2 254//2 414//2 416//2
f 307//3 308//3 468//3 467//3
f 204//2 202//2 362//2 364//2
f 255//3 256//3 416//3 415//3
f 305//4 307//4 467//4 465//4
f 203//3 204//3 364//3 363//3
f 253//4 255//4 415//4 413//4
f 306//5 305//5 465//5 466//5
f 201//4 203//4 363//4 361//4
f 254//5 253//5 413//5 414//5
f 304//2 302//2 462//2 464//2
f 202//5 201//5 361//5 362//5
f 252//2 250//2 410//2 412//2
f 303//3 304//3 464//3 463//3
f 200//2 198//2 358//2 360//2
f 251//3 252//3 412//3 411//3
f 301//4 303//4 463//4 461//4
f 199//3 200//3 360//3 359//3
f 249//4 251//4 411//4 409//4
f 302//5 301//5 461//5 462//5
f 197//4 199//4 359//4 357//4
f 250//5 249//5 409//5 410//5
f 300//2 298//2 458//2 460//2
f 198//5 197//5 357//5 358//5
f 248//2 246//2 406//2 408//2
f 299//3 300//3 460//3 459//3
f 196//2 194//2 354//2 356//2
f 247//3 248//3 408//3 407//3
f 297//4 299//4 459//4 457//4
f 195//3 196//3 356//3 355//3
f 245//4 247//4 407//4 405//4
f 298//5 297//5 457//5 458//5
f 193//4 195//4 355//4 353//4
f 246//5 245//5 405//5 406//5
f 296//2 294//2 454//2 456//2
f 194//5 193//5 353//5 354//5
f 244//2 242//2 402//2 404//2
f 295//3 296//3 456//3 455//3
f 192//2 190//2 350//2 352//2
f 243//3 244//3 404//3 403//3
f 95//6 96//6 254//6 256//6
f 48//6 45//6 205//6 206//6
f 147//6 148//6 306//6 308//6
f 100//6 97//6 257//6 258//6
f 45//6 46//6 207//6 205//6
f 152//6 149//6 309//6 310//6
f 97//6 98//6 259//6 257//6
f 46//6 47//6 208//6 207//6
f 149//6 150//6 311//6 309//6
f 98//6 99//6 260//6 259//6
f 47//6 48//6 206//6 208//6
f 150//6 151//6 312//6 311//6
f 99//6 100//6 258//6 260//6
f 52//6 49//6 209//6 210//6
f 151//6 152//6 310//6 312//6
f 104//6 101//6 261//6 262//6
f 49//6 50//6 211//6 209//6
f 156//6 153//6 313//6 314//6
f 101//6 102//6 263//6 261//6
f 50//6 51//6 212//6 211//6
f 153//6 154//6 315//6 313//6
f 102//6 103//6 264//6 263//6
f 51//6 52//6 210//6 212//6
f 154//6 155//6 316//6 315//6
f 4//6 1//6 161//6 162//6
f 103//6 104//6 262//6 264//6
f 56//6 53//6 213//6 214//6
f 155//6 156//6 314//6 316//6
f 1//6 2//6 163//6 161//6
f 108//6 105//6 265//6 266//6
f 53//6 54//6 215//6 213//6
f 160//6 157//6 317//6 318//6
f 2//6 3//6 164//6 163//6
f 105//6 106//6 267//6 265//6
f 54//6 55//6 216//6 215//6
f 157//6 158//6 319//6 317//6
f 3//6 4//6 162//6 164//6
f 106//6 107//6 268//6 267//6
f 55//6 56//6 214//6 216//6
f 158//6 159//6 320//6 319//6
f 8//6 5//6 165//6 166//6
f 107//6 108//6 266//6 268//6
f 60//6 57//6 217//6 218//6
f 159//6 160//6 318//6 320//6
f 5//6 6//6 167//6 165//6
f 112//6 109//6 269//6 270//6
f 57//6 58//6 219//6 217//6
f 6//6 7//6 168//6 167//6
f 109//6 110//6 271//6 269//6
f 58//6 59//6 220//6 219//6
f 7//6 8//6 166//6 168//6
f 110//6 111//6 272//6 271//6
f 59//6 60//6 218//6 220//6
f 12//6 9//6 169//6 170//6
f 111//6 112//6 270//6 272//6
f 64//6 61//6 221//6 222//6
f 9//6 10//6 171//6 169//6
f 116//6 113//6 273//6 274//6
f 61//6 62//6 223//6 221//6
f 10//6 11//6 172//6 171//6
f 113//6 114//6 275//6 273//6
f 62//6 63//6 224//6 223//6
f 11//6 12//6 170//6 172//6
f 114//6 115//6 276//6 275//6
f 63//6 64//6 222//6 224//6
f 16//6 13//6 173//6 174//6
f 115//6 116//6 274//6 276//6
f 68//6 65//6 225//6 226//6
f 13//6 14//6 175//6 173//6
f 120//6 117//6 277//6 278//6
f 65//6 66//6 227//6 225//6
f 14//6 15//6 176//6 175//6
f 117//6 118//6 279//6 277//6
f 66//6 67//6 228//6 227//6
f 15//6 16//6 174//6 176//6
f 118//6 119//6 280//6 279//6
f 67//6 68//6 226//6 228//6
f 20//6 17//6 177//6 178//6
f 119//6 120//6 278//6 280//6
f 72//6 69//6 229//6 230//6
f 17//6 18//6 179//6 177//6
f 124//6 121//6 281//6 282//6
f 69//6 70//6 231//6 229//6
f 18//6 19//6 180//6 179//6
f 121//6 122//6 283//6 281//6
f 70//6 71//6 232//6 231//6
f 19//6 20//6 178//6 180//6
f 122//6 123//6 284//6 283//6
f 71//6 72//6 230//6 232//6
f 24//6 21//6 181//6 182//6
f 123//6 124//6 282//6 284//6
f 76//6 73//6 233//6 234//6
f 21//6 22//6 183//6 181//6
f 128//6 125//6 285//6 286//6
f 73//6 74//6 235//6 233//6
f 22//6 23//6 184//6 183//6
f 125//6 126//6 287//6 285//6
f 74//6 75//6 236//6 235//6
f 23//6 24//6 182//6 184//6
f 126//6 127//6 288//6 287//6
f 75//6 76//6 234//6 236//6
f 28//6 25//6 185//6 186//6
f 127//6 128//6 286//6 288//6
f 80//6 77//6 237//6 238//6
f 25//6 26//6 187//6 185//6
f 132//6 129//6 289//6 290//6
f 77//6 78//6 239//6 237//6
f 26//6 27//6 188//6 187//6
f 129//6 130//6 291//6 289//6
f 78//6 79//6 240//6 239//6
f 27//6 28//6 186//6 188//6
f 130//6 131//6 292//6 291//6
f 79//6 80//6 238//6 240//6
f 32//6 29//6 189//6 190//6
f 131//6 132//6 290//6 292//6
f 84//6 81//6 241//6 242//6
f 29//6 30//6 191//6 189//6
f 136//6 133//6 293//6 294//6
f 81//6 82//6 243//6 241//6
f 30//6 31//6 192//6 191//6
f 133//6 134//6 295//6 293//6
f 82//6 83//6 244//6 243//6
f 31//6 32//6 190//6 192//6
f 134//6 135//6 296//6 295//6
f 83//6 84//6 242//6 244//6
f 36//6 33//6 193//6 194//6
f 135//6 136//6 294//6 296//6
f 88//6 85//6 245//6 246//6
f 33//6 34//6 195//6 193//6
f 140//6 137//6 297//6 298//6
f 85//6 86//6 247//6 245//6
f 34//6 35//6 196//6 195//6
f 137//6 138//6 299//6 297//6
f 86//6 87//6 248//6 247//6
f 35//6 36//6 194//6 196//6
f 138//6 139//6 300//6 299//6
f 87//6 88//6 246//6 248//6
f 40//6 37//6 197//6 198//6
f 139//6 140//6 298//6 300//6
f 92//6 89//6 249//6 250//6
f 37//6 38//6 199//6 197//6
f 144//6 141//6 301//6 302//6
f 89//6 90//6 251//6 249//6
f 38//6 39//6 200//6 199//6
f 141//6 142//6 303//6 301//6
f 90//6 91//6 252//6 251//6
f 39//6 40//6 198//6 200//6
f 142//6 143//6 304//6 303//6
f 91//6 92//6 250//6 252//6
f 44//6 41//6 201//6 202//6
f 143//6 144//6 302//6 304//6
f 96//6 93//6 253//6 254//6
f 41//6 42//6 203//6 201//6
f 148//6 145//6 305//6 306//6
f 93//6 94//6 255//6 253//6
f 42//6 43//6 204//6 203//6
f 145//6 146//6 307//6 305//6
f 94//6 95//6 256//6 255//6
f 43//6 44//6 202//6 204//6
f 146//6 147//6 308//6 307//6
f 321//6 323//6 324//6 322//6
f 325//6 327//6 328//6 326//6
f 329//6 331//6 332//6 330//6
f 333//6 335//6 336//6 334//6
f 337//6 339//6 340//6 338//6
f 341//6 343//6 344//6 342//6
f 345//6 347//6 348//6 346//6
f 349//6 351//6 352//6 350//6
f 353//6 355//6 356//6 354//6
f 357//6 359//6 360//6 358//6
f 361//6 363//6 364//6 362//6
f 365//6 367//6 368//6 366//6
f 369//6 371//6 372//6 370//6
f 373//6 375//6 376//6 374//6
f 377//6 379//6 380//6 378//6
f 381//6 383//6 384//6 382//6
f 385//6 387//6 388//6 386//6
f 389//6 391//6 392//6 390//6
f 393//6 395//6 396//6 394//6
f 397//6 399//6 400//6 398//6
f 401//6 403//6 404//6 402//6
f 405//6 407//6 408//6 406//6
f 409//6 411//6 412//6 410//6
f 413//6 415//6 416//6 414//6
f 417//6 419//6 420//6 418//6
f 421//6 423//6 424//6 422//6
f 425//6 427//6 428//6 426//6
f 429//6 431//6 432//6 430//6
f 433//6 435//6 436//6 434//6
f 437//6 439//6 440//6 438//6
f 441//6 443//6 444//6 442//6
f 445//6 447//6 448//6 446//6
f 449//6 451//6 452//6 450//6
f 453//6 455//6 456//6 454//6
f 457//6 459//6 460//6 458//6
f 461//6 463//6 464//6 462//6
f 465//6 467//6 468//6 466//6
f 469//6 471//6 472//6 470//6
f 473//6 475//6 476//6 474//6
f 477//6 479//6 480//6 478//6
f 206//5 205//5 365//5 366//5
f 308//2 306//2 466//2 468//2
f 258//5 257//5 417//5 418//5
f 205//4 207//4 367//4 365//4
f 310//5 309//5 469//5 470//5
f 257//4 259//4 419//4 417//4
f 207//3 208//3 368//3 367//3
f 309//4 311//4 471//4 469//4
f 259//3 260//3 420//3 419//3
f 208//2 206//2 366//2 368//2
f 311//3 312//3 472//3 471//3
f 260//2 258//2 418//2 420//2
f 210//5 209//5 369//5 370//5
f 312//2 310//2 470//2 472//2
f 262//5 261//5 421//5 422//5
f 209//4 211//4 371//4 369//4
f 314//5 313//5 473//5 474//5
f 261//4 263//4 423//4 421//4
f 211//3 212//3 372//3 371//3
f 313//4 315//4 475//4 473//4
f 263//3 264//3 424//3 423//3
f 212//2 210//2 370//2 372//2
f 315//3 316//3 476//3 475//3
f 162//5 161//5 321//5 322//5
f 264//2 262//2 422//2 424//2
f 214//5 213//5 373//5 374//5
f 316//2 314//2 474//2 476//2
f 161//4 163//4 323//4 321//4
f 266//5 265//5 425//5 426//5
f 213//4 215//4 375//4 373//4
f 318//5 317//5 477//5 478//5
f 163//3 164//3 324//3 323//3
f 265//4 267//4 427//4 425//4
f 215//3 216//3 376//3 375//3
f 317//4 319//4 479//4 477//4
f 164//2 162//2 322//2 324//2
f 267//3 268//3 428//3 427//3
f 216//2 214//2 374//2 376//2
f 319//3 320//3 480//3 479//3
f 166//5 165//5 325//5 326//5
f 268//2 266//2 426//2 428//2
f 218//5 217//5 377//5 378//5
f 320//2 318//2 478//2 480//2
f 165//4 167//4 327//4 325//4
f 270//5 269//5 429//5 430//5
f 217//4 219//4 379//4 377//4
f 167//3 168//3 328//3 327//3
f 269//4 271//4 431//4 429//4
f 219//3 220//3 380//3 379//3
f 168//2 166//2 326//2 328//2
f 271//3 272//3 432//3 431//3
f 220//2 218//2 378//2 380//2
f 170//5 169//5 329//5 330//5
f 272//2 270//2 430//2 432//2
f 222//5 221//5 381//5 382//5
f 169//4 171//4 331//4 329//4
f 274//5 273//5 433//5 434//5
f 221//4 223//4 383//4 381//4
f 171//3 172//3 332//3 331//3
f 273//4 275//4 435//4 433//4
f 223//3 224//3 384//3 383//3
f 172//2 170//2 330//2 332//2
f 275//3 276//3 436//3 435//3
f 224//2 222//2 382//2 384//2
f 174//5 173//5 333//5 334//5
f 276//2 274//2 434//2 436//2
f 226//5 225//5 385//5 386//5
f 173//4 175//4 335//4 333//4
f 278//5 277//5 437//5 438//5
f 225//4 227//4 387//4 385//4
f 175//3 176//3 336//3 335//3
f 277//4 279//4 439//4 437//4
f 227//3 228//3 388//3 387//3
f 176//2 174//2 334//2 336//2
f 279//3 280//3 440//3 439//3
f 228//2 226//2 386//2 388//2
f 178//5 177//5 337//5 338//5
f 280//2 278//2 438//2 440//2
f 230//5 229//5 389//5 390//5
f 177//4 179//4 339//4 337//4
f 282//5 281//5 441//5 442//5
f 229//4 231//4 391//4 389//4
f 179//3 180//3 340//3 339//3
f 281//4 283//4 443//4 441//4
f 231//3 232//3 392//3 391//3
f 180//2 178//2 338//2 340//2
f 283//3 284//3 444//3 443//3
f 232//2 230//2 390//2 392//2
f 182//5 181//5 341//5 342//5
f 284//2 282//2 442//2 444//2
f 234//5 233//5 393//5 394//5
f 181//4 183//4 343//4 341//4
f 286//5 285//5 445//5 446//5
f 233//4 235//4 395//4 393//4
f 183//3 184//3 344//3 343//3
f 285//4 287//4 447//4 445//4
f 235//3 236//3 396//3 395//3
f 184//2 182//2 342//2 344//2
f 287//3 288//3 448//3 447//3
f 236//2 234//2 394//2 396//2
f 186//5 185//5 345//5 346//5
f 288//2 286//2 446//2 448//2
f 238//5 237//5 397//5 398//5
f 185//4 187//4 347//4 345//4
f 290//5 289//5 449//5 450//5
f 237//4 239//4 399//4 397//4
f 187//3 188//3 348//3 347//3
f 289//4 291//4 451//4 449//4
f 239//3 240//3 400//3 399//3
f 188//2 186//2 346//2 348//2
f 291//3 292//3 452//3 451//3
f 240//2 238//2 398//2 400//2
f 190//5 189//5 349//5 350//5
f 292//2 290//2 450//2 452//2
f 242//5 241//5 401//5 402//5
f 189//4 191//4 351//4 349//4
f 294//5 293//5 453//5 454//5
f 241//4 243//4 403//4 401//4
f 191//3 192//3 352//3 351//3
f 293//4 295//4 455//4 453//4
