# Blender 4.2.1 LTS
# www.blender.org
mtllib counterspell_sprite.mtl
o counterspell-pink.bmp
v 1.500000 0.000000 0.000000
v 1.600000 0.000000 0.000000
v 1.600000 0.000000 -0.100000
v 1.500000 0.000000 -0.100000
v 1.500000 0.000000 -0.100000
v 1.600000 0.000000 -0.100000
v 1.600000 0.000000 -0.200000
v 1.500000 0.000000 -0.200000
v 1.500000 0.000000 -0.200000
v 1.600000 0.000000 -0.200000
v 1.600000 0.000000 -0.300000
v 1.500000 0.000000 -0.300000
v 1.500000 0.000000 -0.300000
v 1.600000 0.000000 -0.300000
v 1.600000 0.000000 -0.400000
v 1.500000 0.000000 -0.400000
v 1.600000 0.000000 -0.300000
v 1.700000 0.000000 -0.300000
v 1.700000 0.000000 -0.400000
v 1.600000 0.000000 -0.400000
v 1.500000 0.000000 -0.400000
v 1.600000 0.000000 -0.400000
v 1.600000 0.000000 -0.500000
v 1.500000 0.000000 -0.500000
v 1.600000 0.000000 -0.400000
v 1.700000 0.000000 -0.400000
v 1.700000 0.000000 -0.500000
v 1.600000 0.000000 -0.500000
v 1.500000 0.000000 -0.500000
v 1.600000 0.000000 -0.500000
v 1.600000 0.000000 -0.600000
v 1.500000 0.000000 -0.600000
v 1.600000 0.000000 -0.500000
v 1.700000 0.000000 -0.500000
v 1.700000 0.000000 -0.600000
v 1.600000 0.000000 -0.600000
v 1.500000 0.000000 -0.600000
v 1.600000 0.000000 -0.600000
v 1.600000 0.000000 -0.700000
v 1.500000 0.000000 -0.700000
v 1.600000 0.000000 -0.600000
v 1.700000 0.000000 -0.600000
v 1.700000 0.000000 -0.700000
v 1.600000 0.000000 -0.700000
v 1.400000 0.000000 -0.700000
v 1.500000 0.000000 -0.700000
v 1.500000 0.000000 -0.800000
v 1.400000 0.000000 -0.800000
v 1.500000 0.000000 -0.700000
v 1.600000 0.000000 -0.700000
v 1.600000 0.000000 -0.800000
v 1.500000 0.000000 -0.800000
v 1.600000 0.000000 -0.700000
v 1.700000 0.000000 -0.700000
v 1.700000 0.000000 -0.800000
v 1.600000 0.000000 -0.800000
v 1.700000 0.000000 -0.700000
v 1.800000 0.000000 -0.700000
v 1.800000 0.000000 -0.800000
v 1.700000 0.000000 -0.800000
v 1.400000 0.000000 -0.800000
v 1.500000 0.000000 -0.800000
v 1.500000 0.000000 -0.900000
v 1.400000 0.000000 -0.900000
v 1.500000 0.000000 -0.800000
v 1.600000 0.000000 -0.800000
v 1.600000 0.000000 -0.900000
v 1.500000 0.000000 -0.900000
v 1.600000 0.000000 -0.800000
v 1.700000 0.000000 -0.800000
v 1.700000 0.000000 -0.900000
v 1.600000 0.000000 -0.900000
v 1.700000 0.000000 -0.800000
v 1.800000 0.000000 -0.800000
v 1.800000 0.000000 -0.900000
v 1.700000 0.000000 -0.900000
v 1.300000 0.000000 -0.900000
v 1.400000 0.000000 -0.900000
v 1.400000 0.000000 -1.000000
v 1.300000 0.000000 -1.000000
v 1.400000 0.000000 -0.900000
v 1.500000 0.000000 -0.900000
v 1.500000 0.000000 -1.000000
v 1.400000 0.000000 -1.000000
v 1.700000 0.000000 -0.900000
v 1.800000 0.000000 -0.900000
v 1.800000 0.000000 -1.000000
v 1.700000 0.000000 -1.000000
v 1.300000 0.000000 -1.000000
v 1.400000 0.000000 -1.000000
v 1.400000 0.000000 -1.100000
v 1.300000 0.000000 -1.100000
v 1.400000 0.000000 -1.000000
v 1.500000 0.000000 -1.000000
v 1.500000 0.000000 -1.100000
v 1.400000 0.000000 -1.100000
v 1.700000 0.000000 -1.000000
v 1.800000 0.000000 -1.000000
v 1.800000 0.000000 -1.100000
v 1.700000 0.000000 -1.100000
v 1.800000 0.000000 -1.000000
v 1.900000 0.000000 -1.000000
v 1.900000 0.000000 -1.100000
v 1.800000 0.000000 -1.100000
v 1.300000 0.000000 -1.100000
v 1.400000 0.000000 -1.100000
v 1.400000 0.000000 -1.200000
v 1.300000 0.000000 -1.200000
v 1.400000 0.000000 -1.100000
v 1.500000 0.000000 -1.100000
v 1.500000 0.000000 -1.200000
v 1.400000 0.000000 -1.200000
v 1.700000 0.000000 -1.100000
v 1.800000 0.000000 -1.100000
v 1.800000 0.000000 -1.200000
v 1.700000 0.000000 -1.200000
v 1.800000 0.000000 -1.100000
v 1.900000 0.000000 -1.100000
v 1.900000 0.000000 -1.200000
v 1.800000 0.000000 -1.200000
v 1.900000 0.000000 -1.100000
v 2.000000 0.000000 -1.100000
v 2.000000 0.000000 -1.200000
v 1.900000 0.000000 -1.200000
v 1.200000 0.000000 -1.200000
v 1.300000 0.000000 -1.200000
v 1.300000 0.000000 -1.300000
v 1.200000 0.000000 -1.300000
v 1.300000 0.000000 -1.200000
v 1.400000 0.000000 -1.200000
v 1.400000 0.000000 -1.300000
v 1.300000 0.000000 -1.300000
v 1.800000 0.000000 -1.200000
v 1.900000 0.000000 -1.200000
v 1.900000 0.000000 -1.300000
v 1.800000 0.000000 -1.300000
v 1.900000 0.000000 -1.200000
v 2.000000 0.000000 -1.200000
v 2.000000 0.000000 -1.300000
v 1.900000 0.000000 -1.300000
v 1.100000 0.000000 -1.300000
v 1.200000 0.000000 -1.300000
v 1.200000 0.000000 -1.400000
v 1.100000 0.000000 -1.400000
v 1.200000 0.000000 -1.300000
v 1.300000 0.000000 -1.300000
v 1.300000 0.000000 -1.400000
v 1.200000 0.000000 -1.400000
v 1.300000 0.000000 -1.300000
v 1.400000 0.000000 -1.300000
v 1.400000 0.000000 -1.400000
v 1.300000 0.000000 -1.400000
v 1.800000 0.000000 -1.300000
v 1.900000 0.000000 -1.300000
v 1.900000 0.000000 -1.400000
v 1.800000 0.000000 -1.400000
v 1.900000 0.000000 -1.300000
v 2.000000 0.000000 -1.300000
v 2.000000 0.000000 -1.400000
v 1.900000 0.000000 -1.400000
v 2.000000 0.000000 -1.300000
v 2.100000 0.000000 -1.300000
v 2.100000 0.000000 -1.400000
v 2.000000 0.000000 -1.400000
v 1.100000 0.000000 -1.400000
v 1.200000 0.000000 -1.400000
v 1.200000 0.000000 -1.500000
v 1.100000 0.000000 -1.500000
v 1.200000 0.000000 -1.400000
v 1.300000 0.000000 -1.400000
v 1.300000 0.000000 -1.500000
v 1.200000 0.000000 -1.500000
v 1.900000 0.000000 -1.400000
v 2.000000 0.000000 -1.400000
v 2.000000 0.000000 -1.500000
v 1.900000 0.000000 -1.500000
v 2.000000 0.000000 -1.400000
v 2.100000 0.000000 -1.400000
v 2.100000 0.000000 -1.500000
v 2.000000 0.000000 -1.500000
v 2.100000 0.000000 -1.400000
v 2.200000 0.000000 -1.400000
v 2.200000 0.000000 -1.500000
v 2.100000 0.000000 -1.500000
v 0.800000 0.000000 -1.500000
v 0.900000 0.000000 -1.500000
v 0.900000 0.000000 -1.600000
v 0.800000 0.000000 -1.600000
v 0.900000 0.000000 -1.500000
v 1.000000 0.000000 -1.500000
v 1.000000 0.000000 -1.600000
v 0.900000 0.000000 -1.600000
v 1.000000 0.000000 -1.500000
v 1.100000 0.000000 -1.500000
v 1.100000 0.000000 -1.600000
v 1.000000 0.000000 -1.600000
v 1.100000 0.000000 -1.500000
v 1.200000 0.000000 -1.500000
v 1.200000 0.000000 -1.600000
v 1.100000 0.000000 -1.600000
v 2.000000 0.000000 -1.500000
v 2.100000 0.000000 -1.500000
v 2.100000 0.000000 -1.600000
v 2.000000 0.000000 -1.600000
v 2.100000 0.000000 -1.500000
v 2.200000 0.000000 -1.500000
v 2.200000 0.000000 -1.600000
v 2.100000 0.000000 -1.600000
v 2.200000 0.000000 -1.500000
v 2.300000 0.000000 -1.500000
v 2.300000 0.000000 -1.600000
v 2.200000 0.000000 -1.600000
v 2.300000 0.000000 -1.500000
v 2.400000 0.000000 -1.500000
v 2.400000 0.000000 -1.600000
v 2.300000 0.000000 -1.600000
v 0.600000 0.000000 -1.600000
v 0.700000 0.000000 -1.600000
v 0.700000 0.000000 -1.700000
v 0.600000 0.000000 -1.700000
v 0.700000 0.000000 -1.600000
v 0.800000 0.000000 -1.600000
v 0.800000 0.000000 -1.700000
v 0.700000 0.000000 -1.700000
v 0.800000 0.000000 -1.600000
v 0.900000 0.000000 -1.600000
v 0.900000 0.000000 -1.700000
v 0.800000 0.000000 -1.700000
v 2.300000 0.000000 -1.600000
v 2.400000 0.000000 -1.600000
v 2.400000 0.000000 -1.700000
v 2.300000 0.000000 -1.700000
v 2.400000 0.000000 -1.600000
v 2.500000 0.000000 -1.600000
v 2.500000 0.000000 -1.700000
v 2.400000 0.000000 -1.700000
v 2.500000 0.000000 -1.600000
v 2.600000 0.000000 -1.600000
v 2.600000 0.000000 -1.700000
v 2.500000 0.000000 -1.700000
v 2.600000 0.000000 -1.600000
v 2.700000 0.000000 -1.600000
v 2.700000 0.000000 -1.700000
v 2.600000 0.000000 -1.700000
v 0.400000 0.000000 -1.700000
v 0.500000 0.000000 -1.700000
v 0.500000 0.000000 -1.800000
v 0.400000 0.000000 -1.800000
v 0.500000 0.000000 -1.700000
v 0.600000 0.000000 -1.700000
v 0.600000 0.000000 -1.800000
v 0.500000 0.000000 -1.800000
v 0.600000 0.000000 -1.700000
v 0.700000 0.000000 -1.700000
v 0.700000 0.000000 -1.800000
v 0.600000 0.000000 -1.800000
v 0.700000 0.000000 -1.700000
v 0.800000 0.000000 -1.700000
v 0.800000 0.000000 -1.800000
v 0.700000 0.000000 -1.800000
v 0.800000 0.000000 -1.700000
v 0.900000 0.000000 -1.700000
v 0.900000 0.000000 -1.800000
v 0.800000 0.000000 -1.800000
v 2.300000 0.000000 -1.700000
v 2.400000 0.000000 -1.700000
v 2.400000 0.000000 -1.800000
v 2.300000 0.000000 -1.800000
v 2.400000 0.000000 -1.700000
v 2.500000 0.000000 -1.700000
v 2.500000 0.000000 -1.800000
v 2.400000 0.000000 -1.800000
v 2.500000 0.000000 -1.700000
v 2.600000 0.000000 -1.700000
v 2.600000 0.000000 -1.800000
v 2.500000 0.000000 -1.800000
v 2.600000 0.000000 -1.700000
v 2.700000 0.000000 -1.700000
v 2.700000 0.000000 -1.800000
v 2.600000 0.000000 -1.800000
v 2.700000 0.000000 -1.700000
v 2.800000 0.000000 -1.700000
v 2.800000 0.000000 -1.800000
v 2.700000 0.000000 -1.800000
v 2.800000 0.000000 -1.700000
v 2.900000 0.000000 -1.700000
v 2.900000 0.000000 -1.800000
v 2.800000 0.000000 -1.800000
v 0.700000 0.000000 -1.800000
v 0.800000 0.000000 -1.800000
v 0.800000 0.000000 -1.900000
v 0.700000 0.000000 -1.900000
v 0.800000 0.000000 -1.800000
v 0.900000 0.000000 -1.800000
v 0.900000 0.000000 -1.900000
v 0.800000 0.000000 -1.900000
v 0.900000 0.000000 -1.800000
v 1.000000 0.000000 -1.800000
v 1.000000 0.000000 -1.900000
v 0.900000 0.000000 -1.900000
v 1.000000 0.000000 -1.800000
v 1.100000 0.000000 -1.800000
v 1.100000 0.000000 -1.900000
v 1.000000 0.000000 -1.900000
v 1.100000 0.000000 -1.800000
v 1.200000 0.000000 -1.800000
v 1.200000 0.000000 -1.900000
v 1.100000 0.000000 -1.900000
v 2.100000 0.000000 -1.800000
v 2.200000 0.000000 -1.800000
v 2.200000 0.000000 -1.900000
v 2.100000 0.000000 -1.900000
v 2.200000 0.000000 -1.800000
v 2.300000 0.000000 -1.800000
v 2.300000 0.000000 -1.900000
v 2.200000 0.000000 -1.900000
v 2.300000 0.000000 -1.800000
v 2.400000 0.000000 -1.800000
v 2.400000 0.000000 -1.900000
v 2.300000 0.000000 -1.900000
v 0.900000 0.000000 -1.900000
v 1.000000 0.000000 -1.900000
v 1.000000 0.000000 -2.000000
v 0.900000 0.000000 -2.000000
v 1.000000 0.000000 -1.900000
v 1.100000 0.000000 -1.900000
v 1.100000 0.000000 -2.000000
v 1.000000 0.000000 -2.000000
v 1.100000 0.000000 -1.900000
v 1.200000 0.000000 -1.900000
v 1.200000 0.000000 -2.000000
v 1.100000 0.000000 -2.000000
v 1.200000 0.000000 -1.900000
v 1.300000 0.000000 -1.900000
v 1.300000 0.000000 -2.000000
v 1.200000 0.000000 -2.000000
v 2.000000 0.000000 -1.900000
v 2.100000 0.000000 -1.900000
v 2.100000 0.000000 -2.000000
v 2.000000 0.000000 -2.000000
v 2.100000 0.000000 -1.900000
v 2.200000 0.000000 -1.900000
v 2.200000 0.000000 -2.000000
v 2.100000 0.000000 -2.000000
v 2.200000 0.000000 -1.900000
v 2.300000 0.000000 -1.900000
v 2.300000 0.000000 -2.000000
v 2.200000 0.000000 -2.000000
v 1.100000 0.000000 -2.000000
v 1.200000 0.000000 -2.000000
v 1.200000 0.000000 -2.100000
v 1.100000 0.000000 -2.100000
v 1.200000 0.000000 -2.000000
v 1.300000 0.000000 -2.000000
v 1.300000 0.000000 -2.100000
v 1.200000 0.000000 -2.100000
v 1.300000 0.000000 -2.000000
v 1.400000 0.000000 -2.000000
v 1.400000 0.000000 -2.100000
v 1.300000 0.000000 -2.100000
v 1.900000 0.000000 -2.000000
v 2.000000 0.000000 -2.000000
v 2.000000 0.000000 -2.100000
v 1.900000 0.000000 -2.100000
v 2.000000 0.000000 -2.000000
v 2.100000 0.000000 -2.000000
v 2.100000 0.000000 -2.100000
v 2.000000 0.000000 -2.100000
v 2.100000 0.000000 -2.000000
v 2.200000 0.000000 -2.000000
v 2.200000 0.000000 -2.100000
v 2.100000 0.000000 -2.100000
v 1.200000 0.000000 -2.100000
v 1.300000 0.000000 -2.100000
v 1.300000 0.000000 -2.200000
v 1.200000 0.000000 -2.200000
v 1.300000 0.000000 -2.100000
v 1.400000 0.000000 -2.100000
v 1.400000 0.000000 -2.200000
v 1.300000 0.000000 -2.200000
v 1.400000 0.000000 -2.100000
v 1.500000 0.000000 -2.100000
v 1.500000 0.000000 -2.200000
v 1.400000 0.000000 -2.200000
v 1.800000 0.000000 -2.100000
v 1.900000 0.000000 -2.100000
v 1.900000 0.000000 -2.200000
v 1.800000 0.000000 -2.200000
v 1.900000 0.000000 -2.100000
v 2.000000 0.000000 -2.100000
v 2.000000 0.000000 -2.200000
v 1.900000 0.000000 -2.200000
v 2.000000 0.000000 -2.100000
v 2.100000 0.000000 -2.100000
v 2.100000 0.000000 -2.200000
v 2.000000 0.000000 -2.200000
v 1.200000 0.000000 -2.200000
v 1.300000 0.000000 -2.200000
v 1.300000 0.000000 -2.300000
v 1.200000 0.000000 -2.300000
v 1.300000 0.000000 -2.200000
v 1.400000 0.000000 -2.200000
v 1.400000 0.000000 -2.300000
v 1.300000 0.000000 -2.300000
v 1.400000 0.000000 -2.200000
v 1.500000 0.000000 -2.200000
v 1.500000 0.000000 -2.300000
v 1.400000 0.000000 -2.300000
v 1.800000 0.000000 -2.200000
v 1.900000 0.000000 -2.200000
v 1.900000 0.000000 -2.300000
v 1.800000 0.000000 -2.300000
v 1.900000 0.000000 -2.200000
v 2.000000 0.000000 -2.200000
v 2.000000 0.000000 -2.300000
v 1.900000 0.000000 -2.300000
v 1.300000 0.000000 -2.300000
v 1.400000 0.000000 -2.300000
v 1.400000 0.000000 -2.400000
v 1.300000 0.000000 -2.400000
v 1.400000 0.000000 -2.300000
v 1.500000 0.000000 -2.300000
v 1.500000 0.000000 -2.400000
v 1.400000 0.000000 -2.400000
v 1.800000 0.000000 -2.300000
v 1.900000 0.000000 -2.300000
v 1.900000 0.000000 -2.400000
v 1.800000 0.000000 -2.400000
v 1.900000 0.000000 -2.300000
v 2.000000 0.000000 -2.300000
v 2.000000 0.000000 -2.400000
v 1.900000 0.000000 -2.400000
v 1.400000 0.000000 -2.400000
v 1.500000 0.000000 -2.400000
v 1.500000 0.000000 -2.500000
v 1.400000 0.000000 -2.500000
v 1.500000 0.000000 -2.400000
v 1.600000 0.000000 -2.400000
v 1.600000 0.000000 -2.500000
v 1.500000 0.000000 -2.500000
v 1.700000 0.000000 -2.400000
v 1.800000 0.000000 -2.400000
v 1.800000 0.000000 -2.500000
v 1.700000 0.000000 -2.500000
v 1.800000 0.000000 -2.400000
v 1.900000 0.000000 -2.400000
v 1.900000 0.000000 -2.500000
v 1.800000 0.000000 -2.500000
v 1.400000 0.000000 -2.500000
v 1.500000 0.000000 -2.500000
v 1.500000 0.000000 -2.600000
v 1.400000 0.000000 -2.600000
v 1.500000 0.000000 -2.500000
v 1.600000 0.000000 -2.500000
v 1.600000 0.000000 -2.600000
v 1.500000 0.000000 -2.600000
v 1.600000 0.000000 -2.500000
v 1.700000 0.000000 -2.500000
v 1.700000 0.000000 -2.600000
v 1.600000 0.000000 -2.600000
v 1.700000 0.000000 -2.500000
v 1.800000 0.000000 -2.500000
v 1.800000 0.000000 -2.600000
v 1.700000 0.000000 -2.600000
v 1.500000 0.000000 -2.600000
v 1.600000 0.000000 -2.600000
v 1.600000 0.000000 -2.700000
v 1.500000 0.000000 -2.700000
v 1.600000 0.000000 -2.600000
v 1.700000 0.000000 -2.600000
v 1.700000 0.000000 -2.700000
v 1.600000 0.000000 -2.700000
v 1.700000 0.000000 -2.600000
v 1.800000 0.000000 -2.600000
v 1.800000 0.000000 -2.700000
v 1.700000 0.000000 -2.700000
v 1.500000 0.000000 -2.700000
v 1.600000 0.000000 -2.700000
v 1.600000 0.000000 -2.800000
v 1.500000 0.000000 -2.800000
v 1.600000 0.000000 -2.700000
v 1.700000 0.000000 -2.700000
v 1.700000 0.000000 -2.800000
v 1.600000 0.000000 -2.800000
v 1.700000 0.000000 -2.700000
v 1.800000 0.000000 -2.700000
v 1.800000 0.000000 -2.800000
v 1.700000 0.000000 -2.800000
v 1.500000 0.000000 -2.800000
v 1.600000 0.000000 -2.800000
v 1.600000 0.000000 -2.900000
v 1.500000 0.000000 -2.900000
v 1.600000 0.000000 -2.800000
v 1.700000 0.000000 -2.800000
v 1.700000 0.000000 -2.900000
v 1.600000 0.000000 -2.900000
v 1.500000 0.000000 -2.900000
v 1.600000 0.000000 -2.900000
v 1.600000 0.000000 -3.000000
v 1.500000 0.000000 -3.000000
v 1.600000 0.000000 -2.900000
v 1.700000 0.000000 -2.900000
v 1.700000 0.000000 -3.000000
v 1.600000 0.000000 -3.000000
v 1.500000 0.000000 -3.000000
v 1.600000 0.000000 -3.000000
v 1.600000 0.000000 -3.100000
v 1.500000 0.000000 -3.100000
v 1.600000 0.000000 -3.000000
v 1.700000 0.000000 -3.000000
v 1.700000 0.000000 -3.100000
v 1.600000 0.000000 -3.100000
v 1.600000 0.000000 -3.100000
v 1.700000 0.000000 -3.100000
v 1.700000 0.000000 -3.200000
v 1.600000 0.000000 -3.200000
v 1.600000 0.000000 -3.200000
v 1.700000 0.000000 -3.200000
v 1.700000 0.000000 -3.300000
v 1.600000 0.000000 -3.300000
v 1.600000 0.000000 -3.300000
v 1.700000 0.000000 -3.300000
v 1.700000 0.000000 -3.400000
v 1.600000 0.000000 -3.400000
v 1.500000 0.060000 0.000000
v 1.500000 0.060000 -0.100000
v 1.600000 0.060000 0.000000
v 1.600000 0.060000 -0.100000
v 1.500000 0.060000 -0.100000
v 1.500000 0.060000 -0.200000
v 1.600000 0.060000 -0.100000
v 1.600000 0.060000 -0.200000
v 1.500000 0.060000 -0.200000
v 1.500000 0.060000 -0.300000
v 1.600000 0.060000 -0.200000
v 1.600000 0.060000 -0.300000
v 1.500000 0.060000 -0.300000
v 1.500000 0.060000 -0.400000
v 1.600000 0.060000 -0.300000
v 1.600000 0.060000 -0.400000
v 1.600000 0.060000 -0.300000
v 1.600000 0.060000 -0.400000
v 1.700000 0.060000 -0.300000
v 1.700000 0.060000 -0.400000
v 1.500000 0.060000 -0.400000
v 1.500000 0.060000 -0.500000
v 1.600000 0.060000 -0.400000
v 1.600000 0.060000 -0.500000
v 1.600000 0.060000 -0.400000
v 1.600000 0.060000 -0.500000
v 1.700000 0.060000 -0.400000
v 1.700000 0.060000 -0.500000
v 1.500000 0.060000 -0.500000
v 1.500000 0.060000 -0.600000
v 1.600000 0.060000 -0.500000
v 1.600000 0.060000 -0.600000
v 1.600000 0.060000 -0.500000
v 1.600000 0.060000 -0.600000
v 1.700000 0.060000 -0.500000
v 1.700000 0.060000 -0.600000
v 1.500000 0.060000 -0.600000
v 1.500000 0.060000 -0.700000
v 1.600000 0.060000 -0.600000
v 1.600000 0.060000 -0.700000
v 1.600000 0.060000 -0.600000
v 1.600000 0.060000 -0.700000
v 1.700000 0.060000 -0.600000
v 1.700000 0.060000 -0.700000
v 1.400000 0.060000 -0.700000
v 1.400000 0.060000 -0.800000
v 1.500000 0.060000 -0.700000
v 1.500000 0.060000 -0.800000
v 1.500000 0.060000 -0.700000
v 1.500000 0.060000 -0.800000
v 1.600000 0.060000 -0.700000
v 1.600000 0.060000 -0.800000
v 1.600000 0.060000 -0.700000
v 1.600000 0.060000 -0.800000
v 1.700000 0.060000 -0.700000
v 1.700000 0.060000 -0.800000
v 1.700000 0.060000 -0.700000
v 1.700000 0.060000 -0.800000
v 1.800000 0.060000 -0.700000
v 1.800000 0.060000 -0.800000
v 1.400000 0.060000 -0.800000
v 1.400000 0.060000 -0.900000
v 1.500000 0.060000 -0.800000
v 1.500000 0.060000 -0.900000
v 1.500000 0.060000 -0.800000
v 1.500000 0.060000 -0.900000
v 1.600000 0.060000 -0.800000
v 1.600000 0.060000 -0.900000
v 1.600000 0.060000 -0.800000
v 1.600000 0.060000 -0.900000
v 1.700000 0.060000 -0.800000
v 1.700000 0.060000 -0.900000
v 1.700000 0.060000 -0.800000
v 1.700000 0.060000 -0.900000
v 1.800000 0.060000 -0.800000
v 1.800000 0.060000 -0.900000
v 1.300000 0.060000 -0.900000
v 1.300000 0.060000 -1.000000
v 1.400000 0.060000 -0.900000
v 1.400000 0.060000 -1.000000
v 1.400000 0.060000 -0.900000
v 1.400000 0.060000 -1.000000
v 1.500000 0.060000 -0.900000
v 1.500000 0.060000 -1.000000
v 1.700000 0.060000 -0.900000
v 1.700000 0.060000 -1.000000
v 1.800000 0.060000 -0.900000
v 1.800000 0.060000 -1.000000
v 1.300000 0.060000 -1.000000
v 1.300000 0.060000 -1.100000
v 1.400000 0.060000 -1.000000
v 1.400000 0.060000 -1.100000
v 1.400000 0.060000 -1.000000
v 1.400000 0.060000 -1.100000
v 1.500000 0.060000 -1.000000
v 1.500000 0.060000 -1.100000
v 1.700000 0.060000 -1.000000
v 1.700000 0.060000 -1.100000
v 1.800000 0.060000 -1.000000
v 1.800000 0.060000 -1.100000
v 1.800000 0.060000 -1.000000
v 1.800000 0.060000 -1.100000
v 1.900000 0.060000 -1.000000
v 1.900000 0.060000 -1.100000
v 1.300000 0.060000 -1.100000
v 1.300000 0.060000 -1.200000
v 1.400000 0.060000 -1.100000
v 1.400000 0.060000 -1.200000
v 1.400000 0.060000 -1.100000
v 1.400000 0.060000 -1.200000
v 1.500000 0.060000 -1.100000
v 1.500000 0.060000 -1.200000
v 1.700000 0.060000 -1.100000
v 1.700000 0.060000 -1.200000
v 1.800000 0.060000 -1.100000
v 1.800000 0.060000 -1.200000
v 1.800000 0.060000 -1.100000
v 1.800000 0.060000 -1.200000
v 1.900000 0.060000 -1.100000
v 1.900000 0.060000 -1.200000
v 1.900000 0.060000 -1.100000
v 1.900000 0.060000 -1.200000
v 2.000000 0.060000 -1.100000
v 2.000000 0.060000 -1.200000
v 1.200000 0.060000 -1.200000
v 1.200000 0.060000 -1.300000
v 1.300000 0.060000 -1.200000
v 1.300000 0.060000 -1.300000
v 1.300000 0.060000 -1.200000
v 1.300000 0.060000 -1.300000
v 1.400000 0.060000 -1.200000
v 1.400000 0.060000 -1.300000
v 1.800000 0.060000 -1.200000
v 1.800000 0.060000 -1.300000
v 1.900000 0.060000 -1.200000
v 1.900000 0.060000 -1.300000
v 1.900000 0.060000 -1.200000
v 1.900000 0.060000 -1.300000
v 2.000000 0.060000 -1.200000
v 2.000000 0.060000 -1.300000
v 1.100000 0.060000 -1.300000
v 1.100000 0.060000 -1.400000
v 1.200000 0.060000 -1.300000
v 1.200000 0.060000 -1.400000
v 1.200000 0.060000 -1.300000
v 1.200000 0.060000 -1.400000
v 1.300000 0.060000 -1.300000
v 1.300000 0.060000 -1.400000
v 1.300000 0.060000 -1.300000
v 1.300000 0.060000 -1.400000
v 1.400000 0.060000 -1.300000
v 1.400000 0.060000 -1.400000
v 1.800000 0.060000 -1.300000
v 1.800000 0.060000 -1.400000
v 1.900000 0.060000 -1.300000
v 1.900000 0.060000 -1.400000
v 1.900000 0.060000 -1.300000
v 1.900000 0.060000 -1.400000
v 2.000000 0.060000 -1.300000
v 2.000000 0.060000 -1.400000
v 2.000000 0.060000 -1.300000
v 2.000000 0.060000 -1.400000
v 2.100000 0.060000 -1.300000
v 2.100000 0.060000 -1.400000
v 1.100000 0.060000 -1.400000
v 1.100000 0.060000 -1.500000
v 1.200000 0.060000 -1.400000
v 1.200000 0.060000 -1.500000
v 1.200000 0.060000 -1.400000
v 1.200000 0.060000 -1.500000
v 1.300000 0.060000 -1.400000
v 1.300000 0.060000 -1.500000
v 1.900000 0.060000 -1.400000
v 1.900000 0.060000 -1.500000
v 2.000000 0.060000 -1.400000
v 2.000000 0.060000 -1.500000
v 2.000000 0.060000 -1.400000
v 2.000000 0.060000 -1.500000
v 2.100000 0.060000 -1.400000
v 2.100000 0.060000 -1.500000
v 2.100000 0.060000 -1.400000
v 2.100000 0.060000 -1.500000
v 2.200000 0.060000 -1.400000
v 2.200000 0.060000 -1.500000
v 0.800000 0.060000 -1.500000
v 0.800000 0.060000 -1.600000
v 0.900000 0.060000 -1.500000
v 0.900000 0.060000 -1.600000
v 0.900000 0.060000 -1.500000
v 0.900000 0.060000 -1.600000
v 1.000000 0.060000 -1.500000
v 1.000000 0.060000 -1.600000
v 1.000000 0.060000 -1.500000
v 1.000000 0.060000 -1.600000
v 1.100000 0.060000 -1.500000
v 1.100000 0.060000 -1.600000
v 1.100000 0.060000 -1.500000
v 1.100000 0.060000 -1.600000
v 1.200000 0.060000 -1.500000
v 1.200000 0.060000 -1.600000
v 2.000000 0.060000 -1.500000
v 2.000000 0.060000 -1.600000
v 2.100000 0.060000 -1.500000
v 2.100000 0.060000 -1.600000
v 2.100000 0.060000 -1.500000
v 2.100000 0.060000 -1.600000
v 2.200000 0.060000 -1.500000
v 2.200000 0.060000 -1.600000
v 2.200000 0.060000 -1.500000
v 2.200000 0.060000 -1.600000
v 2.300000 0.060000 -1.500000
v 2.300000 0.060000 -1.600000
v 2.300000 0.060000 -1.500000
v 2.300000 0.060000 -1.600000
v 2.400000 0.060000 -1.500000
v 2.400000 0.060000 -1.600000
v 0.600000 0.060000 -1.600000
v 0.600000 0.060000 -1.700000
v 0.700000 0.060000 -1.600000
v 0.700000 0.060000 -1.700000
v 0.700000 0.060000 -1.600000
v 0.700000 0.060000 -1.700000
v 0.800000 0.060000 -1.600000
v 0.800000 0.060000 -1.700000
v 0.800000 0.060000 -1.600000
v 0.800000 0.060000 -1.700000
v 0.900000 0.060000 -1.600000
v 0.900000 0.060000 -1.700000
v 2.300000 0.060000 -1.600000
v 2.300000 0.060000 -1.700000
v 2.400000 0.060000 -1.600000
v 2.400000 0.060000 -1.700000
v 2.400000 0.060000 -1.600000
v 2.400000 0.060000 -1.700000
v 2.500000 0.060000 -1.600000
v 2.500000 0.060000 -1.700000
v 2.500000 0.060000 -1.600000
v 2.500000 0.060000 -1.700000
v 2.600000 0.060000 -1.600000
v 2.600000 0.060000 -1.700000
v 2.600000 0.060000 -1.600000
v 2.600000 0.060000 -1.700000
v 2.700000 0.060000 -1.600000
v 2.700000 0.060000 -1.700000
v 0.400000 0.060000 -1.700000
v 0.400000 0.060000 -1.800000
v 0.500000 0.060000 -1.700000
v 0.500000 0.060000 -1.800000
v 0.500000 0.060000 -1.700000
v 0.500000 0.060000 -1.800000
v 0.600000 0.060000 -1.700000
v 0.600000 0.060000 -1.800000
v 0.600000 0.060000 -1.700000
v 0.600000 0.060000 -1.800000
v 0.700000 0.060000 -1.700000
v 0.700000 0.060000 -1.800000
v 0.700000 0.060000 -1.700000
v 0.700000 0.060000 -1.800000
v 0.800000 0.060000 -1.700000
v 0.800000 0.060000 -1.800000
v 0.800000 0.060000 -1.700000
v 0.800000 0.060000 -1.800000
v 0.900000 0.060000 -1.700000
v 0.900000 0.060000 -1.800000
v 2.300000 0.060000 -1.700000
v 2.300000 0.060000 -1.800000
v 2.400000 0.060000 -1.700000
v 2.400000 0.060000 -1.800000
v 2.400000 0.060000 -1.700000
v 2.400000 0.060000 -1.800000
v 2.500000 0.060000 -1.700000
v 2.500000 0.060000 -1.800000
v 2.500000 0.060000 -1.700000
v 2.500000 0.060000 -1.800000
v 2.600000 0.060000 -1.700000
v 2.600000 0.060000 -1.800000
v 2.600000 0.060000 -1.700000
v 2.600000 0.060000 -1.800000
v 2.700000 0.060000 -1.700000
v 2.700000 0.060000 -1.800000
v 2.700000 0.060000 -1.700000
v 2.700000 0.060000 -1.800000
v 2.800000 0.060000 -1.700000
v 2.800000 0.060000 -1.800000
v 2.800000 0.060000 -1.700000
v 2.800000 0.060000 -1.800000
v 2.900000 0.060000 -1.700000
v 2.900000 0.060000 -1.800000
v 0.700000 0.060000 -1.800000
v 0.700000 0.060000 -1.900000
v 0.800000 0.060000 -1.800000
v 0.800000 0.060000 -1.900000
v 0.800000 0.060000 -1.800000
v 0.800000 0.060000 -1.900000
v 0.900000 0.060000 -1.800000
v 0.900000 0.060000 -1.900000
v 0.900000 0.060000 -1.800000
v 0.900000 0.060000 -1.900000
v 1.000000 0.060000 -1.800000
v 1.000000 0.060000 -1.900000
v 1.000000 0.060000 -1.800000
v 1.000000 0.060000 -1.900000
v 1.100000 0.060000 -1.800000
v 1.100000 0.060000 -1.900000
v 1.100000 0.060000 -1.800000
v 1.100000 0.060000 -1.900000
v 1.200000 0.060000 -1.800000
v 1.200000 0.060000 -1.900000
v 2.100000 0.060000 -1.800000
v 2.100000 0.060000 -1.900000
v 2.200000 0.060000 -1.800000
v 2.200000 0.060000 -1.900000
v 2.200000 0.060000 -1.800000
v 2.200000 0.060000 -1.900000
v 2.300000 0.060000 -1.800000
v 2.300000 0.060000 -1.900000
v 2.300000 0.060000 -1.800000
v 2.300000 0.060000 -1.900000
v 2.400000 0.060000 -1.800000
v 2.400000 0.060000 -1.900000
v 0.900000 0.060000 -1.900000
v 0.900000 0.060000 -2.000000
v 1.000000 0.060000 -1.900000
v 1.000000 0.060000 -2.000000
v 1.000000 0.060000 -1.900000
v 1.000000 0.060000 -2.000000
v 1.100000 0.060000 -1.900000
v 1.100000 0.060000 -2.000000
v 1.100000 0.060000 -1.900000
v 1.100000 0.060000 -2.000000
v 1.200000 0.060000 -1.900000
v 1.200000 0.060000 -2.000000
v 1.200000 0.060000 -1.900000
v 1.200000 0.060000 -2.000000
v 1.300000 0.060000 -1.900000
v 1.300000 0.060000 -2.000000
v 2.000000 0.060000 -1.900000
v 2.000000 0.060000 -2.000000
v 2.100000 0.060000 -1.900000
v 2.100000 0.060000 -2.000000
v 2.100000 0.060000 -1.900000
v 2.100000 0.060000 -2.000000
v 2.200000 0.060000 -1.900000
v 2.200000 0.060000 -2.000000
v 2.200000 0.060000 -1.900000
v 2.200000 0.060000 -2.000000
v 2.300000 0.060000 -1.900000
v 2.300000 0.060000 -2.000000
v 1.100000 0.060000 -2.000000
v 1.100000 0.060000 -2.100000
v 1.200000 0.060000 -2.000000
v 1.200000 0.060000 -2.100000
v 1.200000 0.060000 -2.000000
v 1.200000 0.060000 -2.100000
v 1.300000 0.060000 -2.000000
v 1.300000 0.060000 -2.100000
v 1.300000 0.060000 -2.000000
v 1.300000 0.060000 -2.100000
v 1.400000 0.060000 -2.000000
v 1.400000 0.060000 -2.100000
v 1.900000 0.060000 -2.000000
v 1.900000 0.060000 -2.100000
v 2.000000 0.060000 -2.000000
v 2.000000 0.060000 -2.100000
v 2.000000 0.060000 -2.000000
v 2.000000 0.060000 -2.100000
v 2.100000 0.060000 -2.000000
v 2.100000 0.060000 -2.100000
v 2.100000 0.060000 -2.000000
v 2.100000 0.060000 -2.100000
v 2.200000 0.060000 -2.000000
v 2.200000 0.060000 -2.100000
v 1.200000 0.060000 -2.100000
v 1.200000 0.060000 -2.200000
v 1.300000 0.060000 -2.100000
v 1.300000 0.060000 -2.200000
v 1.300000 0.060000 -2.100000
v 1.300000 0.060000 -2.200000
v 1.400000 0.060000 -2.100000
v 1.400000 0.060000 -2.200000
v 1.400000 0.060000 -2.100000
v 1.400000 0.060000 -2.200000
v 1.500000 0.060000 -2.100000
v 1.500000 0.060000 -2.200000
v 1.800000 0.060000 -2.100000
v 1.800000 0.060000 -2.200000
v 1.900000 0.060000 -2.100000
v 1.900000 0.060000 -2.200000
v 1.900000 0.060000 -2.100000
v 1.900000 0.060000 -2.200000
v 2.000000 0.060000 -2.100000
v 2.000000 0.060000 -2.200000
v 2.000000 0.060000 -2.100000
v 2.000000 0.060000 -2.200000
v 2.100000 0.060000 -2.100000
v 2.100000 0.060000 -2.200000
v 1.200000 0.060000 -2.200000
v 1.200000 0.060000 -2.300000
v 1.300000 0.060000 -2.200000
v 1.300000 0.060000 -2.300000
v 1.300000 0.060000 -2.200000
v 1.300000 0.060000 -2.300000
v 1.400000 0.060000 -2.200000
v 1.400000 0.060000 -2.300000
v 1.400000 0.060000 -2.200000
v 1.400000 0.060000 -2.300000
v 1.500000 0.060000 -2.200000
v 1.500000 0.060000 -2.300000
v 1.800000 0.060000 -2.200000
v 1.800000 0.060000 -2.300000
v 1.900000 0.060000 -2.200000
v 1.900000 0.060000 -2.300000
v 1.900000 0.060000 -2.200000
v 1.900000 0.060000 -2.300000
v 2.000000 0.060000 -2.200000
v 2.000000 0.060000 -2.300000
v 1.300000 0.060000 -2.300000
v 1.300000 0.060000 -2.400000
v 1.400000 0.060000 -2.300000
v 1.400000 0.060000 -2.400000
v 1.400000 0.060000 -2.300000
v 1.400000 0.060000 -2.400000
v 1.500000 0.060000 -2.300000
v 1.500000 0.060000 -2.400000
v 1.800000 0.060000 -2.300000
v 1.800000 0.060000 -2.400000
v 1.900000 0.060000 -2.300000
v 1.900000 0.060000 -2.400000
v 1.900000 0.060000 -2.300000
v 1.900000 0.060000 -2.400000
v 2.000000 0.060000 -2.300000
v 2.000000 0.060000 -2.400000
v 1.400000 0.060000 -2.400000
v 1.400000 0.060000 -2.500000
v 1.500000 0.060000 -2.400000
v 1.500000 0.060000 -2.500000
v 1.500000 0.060000 -2.400000
v 1.500000 0.060000 -2.500000
v 1.600000 0.060000 -2.400000
v 1.600000 0.060000 -2.500000
v 1.700000 0.060000 -2.400000
v 1.700000 0.060000 -2.500000
v 1.800000 0.060000 -2.400000
v 1.800000 0.060000 -2.500000
v 1.800000 0.060000 -2.400000
v 1.800000 0.060000 -2.500000
v 1.900000 0.060000 -2.400000
v 1.900000 0.060000 -2.500000
v 1.400000 0.060000 -2.500000
v 1.400000 0.060000 -2.600000
v 1.500000 0.060000 -2.500000
v 1.500000 0.060000 -2.600000
v 1.500000 0.060000 -2.500000
v 1.500000 0.060000 -2.600000
v 1.600000 0.060000 -2.500000
v 1.600000 0.060000 -2.600000
v 1.600000 0.060000 -2.500000
v 1.600000 0.060000 -2.600000
v 1.700000 0.060000 -2.500000
v 1.700000 0.060000 -2.600000
v 1.700000 0.060000 -2.500000
v 1.700000 0.060000 -2.600000
v 1.800000 0.060000 -2.500000
v 1.800000 0.060000 -2.600000
v 1.500000 0.060000 -2.600000
v 1.500000 0.060000 -2.700000
v 1.600000 0.060000 -2.600000
v 1.600000 0.060000 -2.700000
v 1.600000 0.060000 -2.600000
v 1.600000 0.060000 -2.700000
v 1.700000 0.060000 -2.600000
v 1.700000 0.060000 -2.700000
v 1.700000 0.060000 -2.600000
v 1.700000 0.060000 -2.700000
v 1.800000 0.060000 -2.600000
v 1.800000 0.060000 -2.700000
v 1.500000 0.060000 -2.700000
v 1.500000 0.060000 -2.800000
v 1.600000 0.060000 -2.700000
v 1.600000 0.060000 -2.800000
v 1.600000 0.060000 -2.700000
v 1.600000 0.060000 -2.800000
v 1.700000 0.060000 -2.700000
v 1.700000 0.060000 -2.800000
v 1.700000 0.060000 -2.700000
v 1.700000 0.060000 -2.800000
v 1.800000 0.060000 -2.700000
v 1.800000 0.060000 -2.800000
v 1.500000 0.060000 -2.800000
v 1.500000 0.060000 -2.900000
v 1.600000 0.060000 -2.800000
v 1.600000 0.060000 -2.900000
v 1.600000 0.060000 -2.800000
v 1.600000 0.060000 -2.900000
v 1.700000 0.060000 -2.800000
v 1.700000 0.060000 -2.900000
v 1.500000 0.060000 -2.900000
v 1.500000 0.060000 -3.000000
v 1.600000 0.060000 -2.900000
v 1.600000 0.060000 -3.000000
v 1.600000 0.060000 -2.900000
v 1.600000 0.060000 -3.000000
v 1.700000 0.060000 -2.900000
v 1.700000 0.060000 -3.000000
v 1.500000 0.060000 -3.000000
v 1.500000 0.060000 -3.100000
v 1.600000 0.060000 -3.000000
v 1.600000 0.060000 -3.100000
v 1.600000 0.060000 -3.000000
v 1.600000 0.060000 -3.100000
v 1.700000 0.060000 -3.000000
v 1.700000 0.060000 -3.100000
v 1.600000 0.060000 -3.100000
v 1.600000 0.060000 -3.200000
v 1.700000 0.060000 -3.100000
v 1.700000 0.060000 -3.200000
v 1.600000 0.060000 -3.200000
v 1.600000 0.060000 -3.300000
v 1.700000 0.060000 -3.200000
v 1.700000 0.060000 -3.300000
v 1.600000 0.060000 -3.300000
v 1.600000 0.060000 -3.400000
v 1.700000 0.060000 -3.300000
v 1.700000 0.060000 -3.400000
vn -0.0000 -1.0000 -0.0000
vn -0.0000 1.0000 -0.0000
vn 1.0000 -0.0000 -0.0000
vn -1.0000 -0.0000 -0.0000
vn -0.0000 -0.0000 -1.0000
vn -0.0000 -0.0000 1.0000
s 0
usemtl pixel_art_FF4186FF.001
f 1//1 4//1 3//1 2//1
f 5//1 8//1 7//1 6//1
f 9//1 12//1 11//1 10//1
f 13//1 16//1 15//1 14//1
f 17//1 20//1 19//1 18//1
f 21//1 24//1 23//1 22//1
f 25//1 28//1 27//1 26//1
f 29//1 32//1 31//1 30//1
f 33//1 36//1 35//1 34//1
f 37//1 40//1 39//1 38//1
f 41//1 44//1 43//1 42//1
f 45//1 48//1 47//1 46//1
f 49//1 52//1 51//1 50//1
f 53//1 56//1 55//1 54//1
f 57//1 60//1 59//1 58//1
f 61//1 64//1 63//1 62//1
f 65//1 68//1 67//1 66//1
f 69//1 72//1 71//1 70//1
f 73//1 76//1 75//1 74//1
f 77//1 80//1 79//1 78//1
f 81//1 84//1 83//1 82//1
f 85//1 88//1 87//1 86//1
f 89//1 92//1 91//1 90//1
f 93//1 96//1 95//1 94//1
f 97//1 100//1 99//1 98//1
f 101//1 104//1 103//1 102//1
f 105//1 108//1 107//1 106//1
f 109//1 112//1 111//1 110//1
f 113//1 116//1 115//1 114//1
f 117//1 120//1 119//1 118//1
f 121//1 124//1 123//1 122//1
f 125//1 128//1 127//1 126//1
f 129//1 132//1 131//1 130//1
f 133//1 136//1 135//1 134//1
f 137//1 140//1 139//1 138//1
f 141//1 144//1 143//1 142//1
f 145//1 148//1 147//1 146//1
f 149//1 152//1 151//1 150//1
f 153//1 156//1 155//1 154//1
f 157//1 160//1 159//1 158//1
f 161//1 164//1 163//1 162//1
f 165//1 168//1 167//1 166//1
f 169//1 172//1 171//1 170//1
f 173//1 176//1 175//1 174//1
f 177//1 180//1 179//1 178//1
f 181//1 184//1 183//1 182//1
f 185//1 188//1 187//1 186//1
f 189//1 192//1 191//1 190//1
f 193//1 196//1 195//1 194//1
f 197//1 200//1 199//1 198//1
f 201//1 204//1 203//1 202//1
f 205//1 208//1 207//1 206//1
f 209//1 212//1 211//1 210//1
f 213//1 216//1 215//1 214//1
f 217//1 220//1 219//1 218//1
f 221//1 224//1 223//1 222//1
f 225//1 228//1 227//1 226//1
f 229//1 232//1 231//1 230//1
f 233//1 236//1 235//1 234//1
f 237//1 240//1 239//1 238//1
f 241//1 244//1 243//1 242//1
f 245//1 248//1 247//1 246//1
f 249//1 252//1 251//1 250//1
f 253//1 256//1 255//1 254//1
f 257//1 260//1 259//1 258//1
f 261//1 264//1 263//1 262//1
f 265//1 268//1 267//1 266//1
f 269//1 272//1 271//1 270//1
f 273//1 276//1 275//1 274//1
f 277//1 280//1 279//1 278//1
f 281//1 284//1 283//1 282//1
f 285//1 288//1 287//1 286//1
f 289//1 292//1 291//1 290//1
f 293//1 296//1 295//1 294//1
f 297//1 300//1 299//1 298//1
f 301//1 304//1 303//1 302//1
f 305//1 308//1 307//1 306//1
f 309//1 312//1 311//1 310//1
f 313//1 316//1 315//1 314//1
f 317//1 320//1 319//1 318//1
f 321//1 324//1 323//1 322//1
f 325//1 328//1 327//1 326//1
f 329//1 332//1 331//1 330//1
f 333//1 336//1 335//1 334//1
f 337//1 340//1 339//1 338//1
f 341//1 344//1 343//1 342//1
f 345//1 348//1 347//1 346//1
f 349//1 352//1 351//1 350//1
f 353//1 356//1 355//1 354//1
f 357//1 360//1 359//1 358//1
f 361//1 364//1 363//1 362//1
f 365//1 368//1 367//1 366//1
f 369//1 372//1 371//1 370//1
f 373//1 376//1 375//1 374//1
f 377//1 380//1 379//1 378//1
f 381//1 384//1 383//1 382//1
f 385//1 388//1 387//1 386//1
f 389//1 392//1 391//1 390//1
f 393//1 396//1 395//1 394//1
f 397//1 400//1 399//1 398//1
f 401//1 404//1 403//1 402//1
f 405//1 408//1 407//1 406//1
f 409//1 412//1 411//1 410//1
f 413//1 416//1 415//1 414//1
f 417//1 420//1 419//1 418//1
f 421//1 424//1 423//1 422//1
f 425//1 428//1 427//1 426//1
f 429//1 432//1 431//1 430//1
f 433//1 436//1 435//1 434//1
f 437//1 440//1 439//1 438//1
f 441//1 444//1 443//1 442//1
f 445//1 448//1 447//1 446//1
f 449//1 452//1 451//1 450//1
f 453//1 456//1 455//1 454//1
f 457//1 460//1 459//1 458//1
f 461//1 464//1 463//1 462//1
f 465//1 468//1 467//1 466//1
f 469//1 472//1 471//1 470//1
f 473//1 476//1 475//1 474//1
f 477//1 480//1 479//1 478//1
f 481//1 484//1 483//1 482//1
f 485//1 488//1 487//1 486//1
f 489//1 492//1 491//1 490//1
f 493//1 496//1 495//1 494//1
f 497//1 500//1 499//1 498//1
f 501//1 504//1 503//1 502//1
f 505//1 508//1 507//1 506//1
f 509//1 512//1 511//1 510//1
f 513//1 516//1 515//1 514//1
f 517//1 520//1 519//1 518//1
f 521//1 524//1 523//1 522//1
f 525//2 527//2 528//2 526//2
f 529//2 531//2 532//2 530//2
f 533//2 535//2 536//2 534//2
f 537//2 539//2 540//2 538//2
f 541//2 543//2 544//2 542//2
f 545//2 547//2 548//2 546//2
f 549//2 551//2 552//2 550//2
f 553//2 555//2 556//2 554//2
f 557//2 559//2 560//2 558//2
f 561//2 563//2 564//2 562//2
f 565//2 567//2 568//2 566//2
f 569//2 571//2 572//2 570//2
f 573//2 575//2 576//2 574//2
f 577//2 579//2 580//2 578//2
f 581//2 583//2 584//2 582//2
f 585//2 587//2 588//2 586//2
f 589//2 591//2 592//2 590//2
f 593//2 595//2 596//2 594//2
f 597//2 599//2 600//2 598//2
f 601//2 603//2 604//2 602//2
f 605//2 607//2 608//2 606//2
f 609//2 611//2 612//2 610//2
f 613//2 615//2 616//2 614//2
f 617//2 619//2 620//2 618//2
f 621//2 623//2 624//2 622//2
f 625//2 627//2 628//2 626//2
f 629//2 631//2 632//2 630//2
f 633//2 635//2 636//2 634//2
f 637//2 639//2 640//2 638//2
f 641//2 643//2 644//2 642//2
f 645//2 647//2 648//2 646//2
f 649//2 651//2 652//2 650//2
f 653//2 655//2 656//2 654//2
f 657//2 659//2 660//2 658//2
f 661//2 663//2 664//2 662//2
f 665//2 667//2 668//2 666//2
f 669//2 671//2 672//2 670//2
f 673//2 675//2 676//2 674//2
f 677//2 679//2 680//2 678//2
f 681//2 683//2 684//2 682//2
f 685//2 687//2 688//2 686//2
f 689//2 691//2 692//2 690//2
f 693//2 695//2 696//2 694//2
f 697//2 699//2 700//2 698//2
f 701//2 703//2 704//2 702//2
f 705//2 707//2 708//2 706//2
f 709//2 711//2 712//2 710//2
f 713//2 715//2 716//2 714//2
f 717//2 719//2 720//2 718//2
f 721//2 723//2 724//2 722//2
f 725//2 727//2 728//2 726//2
f 729//2 731//2 732//2 730//2
f 733//2 735//2 736//2 734//2
f 737//2 739//2 740//2 738//2
f 741//2 743//2 744//2 742//2
f 745//2 747//2 748//2 746//2
f 749//2 751//2 752//2 750//2
f 753//2 755//2 756//2 754//2
f 757//2 759//2 760//2 758//2
f 761//2 763//2 764//2 762//2
f 765//2 767//2 768//2 766//2
f 769//2 771//2 772//2 770//2
f 773//2 775//2 776//2 774//2
f 777//2 779//2 780//2 778//2
f 781//2 783//2 784//2 782//2
f 785//2 787//2 788//2 786//2
f 789//2 791//2 792//2 790//2
f 793//2 795//2 796//2 794//2
f 797//2 799//2 800//2 798//2
f 801//2 803//2 804//2 802//2
f 805//2 807//2 808//2 806//2
f 809//2 811//2 812//2 810//2
f 813//2 815//2 816//2 814//2
f 817//2 819//2 820//2 818//2
f 821//2 823//2 824//2 822//2
f 825//2 827//2 828//2 826//2
f 829//2 831//2 832//2 830//2
f 833//2 835//2 836//2 834//2
f 837//2 839//2 840//2 838//2
f 841//2 843//2 844//2 842//2
f 845//2 847//2 848//2 846//2
f 849//2 851//2 852//2 850//2
f 853//2 855//2 856//2 854//2
f 857//2 859//2 860//2 858//2
f 861//2 863//2 864//2 862//2
f 865//2 867//2 868//2 866//2
f 869//2 871//2 872//2 870//2
f 873//2 875//2 876//2 874//2
f 877//2 879//2 880//2 878//2
f 881//2 883//2 884//2 882//2
f 885//2 887//2 888//2 886//2
f 889//2 891//2 892//2 890//2
f 893//2 895//2 896//2 894//2
f 897//2 899//2 900//2 898//2
f 901//2 903//2 904//2 902//2
f 905//2 907//2 908//2 906//2
f 909//2 911//2 912//2 910//2
f 913//2 915//2 916//2 914//2
f 917//2 919//2 920//2 918//2
f 921//2 923//2 924//2 922//2
f 925//2 927//2 928//2 926//2
f 929//2 931//2 932//2 930//2
f 933//2 935//2 936//2 934//2
f 937//2 939//2 940//2 938//2
f 941//2 943//2 944//2 942//2
f 945//2 947//2 948//2 946//2
f 949//2 951//2 952//2 950//2
f 953//2 955//2 956//2 954//2
f 957//2 959//2 960//2 958//2
f 961//2 963//2 964//2 962//2
f 965//2 967//2 968//2 966//2
f 969//2 971//2 972//2 970//2
f 973//2 975//2 976//2 974//2
f 977//2 979//2 980//2 978//2
f 981//2 983//2 984//2 982//2
f 985//2 987//2 988//2 986//2
f 989//2 991//2 992//2 990//2
f 993//2 995//2 996//2 994//2
f 997//2 999//2 1000//2 998//2
f 1001//2 1003//2 1004//2 1002//2
f 1005//2 1007//2 1008//2 1006//2
f 1009//2 1011//2 1012//2 1010//2
f 1013//2 1015//2 1016//2 1014//2
f 1017//2 1019//2 1020//2 1018//2
f 1021//2 1023//2 1024//2 1022//2
f 1025//2 1027//2 1028//2 1026//2
f 1029//2 1031//2 1032//2 1030//2
f 1033//2 1035//2 1036//2 1034//2
f 1037//2 1039//2 1040//2 1038//2
f 1041//2 1043//2 1044//2 1042//2
f 1045//2 1047//2 1048//2 1046//2
f 338//3 339//3 864//3 863//3
f 136//4 133//4 657//4 658//4
f 339//5 340//5 862//5 864//5
f 133//6 134//6 659//6 657//6
f 344//4 341//4 865//4 866//4
f 134//3 135//3 660//3 659//3
f 341//6 342//6 867//6 865//6
f 135//5 136//5 658//5 660//5
f 342//3 343//3 868//3 867//3
f 140//4 137//4 661//4 662//4
f 343//5 344//5 866//5 868//5
f 137//6 138//6 663//6 661//6
f 348//4 345//4 869//4 870//4
f 138//3 139//3 664//3 663//3
f 345//6 346//6 871//6 869//6
f 139//5 140//5 662//5 664//5
f 346//3 347//3 872//3 871//3
f 144//4 141//4 665//4 666//4
f 347//5 348//5 870//5 872//5
f 141//6 142//6 667//6 665//6
f 352//4 349//4 873//4 874//4
f 142//3 143//3 668//3 667//3
f 349//6 350//6 875//6 873//6
f 143//5 144//5 666//5 668//5
f 350//3 351//3 876//3 875//3
f 148//4 145//4 669//4 670//4
f 351//5 352//5 874//5 876//5
f 145//6 146//6 671//6 669//6
f 356//4 353//4 877//4 878//4
f 146//3 147//3 672//3 671//3
f 353//6 354//6 879//6 877//6
f 147//5 148//5 670//5 672//5
f 354//3 355//3 880//3 879//3
f 152//4 149//4 673//4 674//4
f 355//5 356//5 878//5 880//5
f 149//6 150//6 675//6 673//6
f 360//4 357//4 881//4 882//4
f 150//3 151//3 676//3 675//3
f 357//6 358//6 883//6 881//6
f 151//5 152//5 674//5 676//5
f 358//3 359//3 884//3 883//3
f 156//4 153//4 677//4 678//4
f 359//5 360//5 882//5 884//5
f 153//6 154//6 679//6 677//6
f 364//4 361//4 885//4 886//4
f 154//3 155//3 680//3 679//3
f 361//6 362//6 887//6 885//6
f 155//5 156//5 678//5 680//5
f 362//3 363//3 888//3 887//3
f 160//4 157//4 681//4 682//4
f 363//5 364//5 886//5 888//5
f 157//6 158//6 683//6 681//6
f 368//4 365//4 889//4 890//4
f 158//3 159//3 684//3 683//3
f 365//6 366//6 891//6 889//6
f 159//5 160//5 682//5 684//5
f 366//3 367//3 892//3 891//3
f 164//4 161//4 685//4 686//4
f 367//5 368//5 890//5 892//5
f 161//6 162//6 687//6 685//6
f 372//4 369//4 893//4 894//4
f 162//3 163//3 688//3 687//3
f 369//6 370//6 895//6 893//6
f 163//5 164//5 686//5 688//5
f 370//3 371//3 896//3 895//3
f 168//4 165//4 689//4 690//4
f 371//5 372//5 894//5 896//5
f 165//6 166//6 691//6 689//6
f 376//4 373//4 897//4 898//4
f 166//3 167//3 692//3 691//3
f 373//6 374//6 899//6 897//6
f 167//5 168//5 690//5 692//5
f 374//3 375//3 900//3 899//3
f 172//4 169//4 693//4 694//4
f 375//5 376//5 898//5 900//5
f 169//6 170//6 695//6 693//6
f 380//4 377//4 901//4 902//4
f 170//3 171//3 696//3 695//3
f 377//6 378//6 903//6 901//6
f 171//5 172//5 694//5 696//5
f 378//3 379//3 904//3 903//3
f 176//4 173//4 697//4 698//4
f 379//5 380//5 902//5 904//5
f 173//6 174//6 699//6 697//6
f 384//4 381//4 905//4 906//4
f 174//3 175//3 700//3 699//3
f 381//6 382//6 907//6 905//6
f 175//5 176//5 698//5 700//5
f 382//3 383//3 908//3 907//3
f 180//4 177//4 701//4 702//4
f 383//5 384//5 906//5 908//5
f 177//6 178//6 703//6 701//6
f 388//4 385//4 909//4 910//4
f 178//3 179//3 704//3 703//3
f 385//6 386//6 911//6 909//6
f 179//5 180//5 702//5 704//5
f 386//3 387//3 912//3 911//3
f 184//4 181//4 705//4 706//4
f 387//5 388//5 910//5 912//5
f 181//6 182//6 707//6 705//6
f 392//4 389//4 913//4 914//4
f 182//3 183//3 708//3 707//3
f 389//6 390//6 915//6 913//6
f 183//5 184//5 706//5 708//5
f 390//3 391//3 916//3 915//3
f 188//4 185//4 709//4 710//4
f 391//5 392//5 914//5 916//5
f 185//6 186//6 711//6 709//6
f 396//4 393//4 917//4 918//4
f 186//3 187//3 712//3 711//3
f 393//6 394//6 919//6 917//6
f 187//5 188//5 710//5 712//5
f 394//3 395//3 920//3 919//3
f 192//4 189//4 713//4 714//4
f 395//5 396//5 918//5 920//5
f 189//6 190//6 715//6 713//6
f 400//4 397//4 921//4 922//4
f 190//3 191//3 716//3 715//3
f 397//6 398//6 923//6 921//6
f 191//5 192//5 714//5 716//5
f 398//3 399//3 924//3 923//3
f 196//4 193//4 717//4 718//4
f 399//5 400//5 922//5 924//5
f 193//6 194//6 719//6 717//6
f 404//4 401//4 925//4 926//4
f 194//3 195//3 720//3 719//3
f 401//6 402//6 927//6 925//6
f 195//5 196//5 718//5 720//5
f 402//3 403//3 928//3 927//3
f 200//4 197//4 721//4 722//4
f 403//5 404//5 926//5 928//5
f 197//6 198//6 723//6 721//6
f 408//4 405//4 929//4 930//4
f 198//3 199//3 724//3 723//3
f 405//6 406//6 931//6 929//6
f 199//5 200//5 722//5 724//5
f 406//3 407//3 932//3 931//3
f 204//4 201//4 725//4 726//4
f 407//5 408//5 930//5 932//5
f 201//6 202//6 727//6 725//6
f 412//4 409//4 933//4 934//4
f 202//3 203//3 728//3 727//3
f 409//6 410//6 935//6 933//6
f 203//5 204//5 726//5 728//5
f 410//3 411//3 936//3 935//3
f 208//4 205//4 729//4 730//4
f 411//5 412//5 934//5 936//5
f 205//6 206//6 731//6 729//6
f 416//4 413//4 937//4 938//4
f 206//3 207//3 732//3 731//3
f 4//4 1//4 525//4 526//4
f 413//6 414//6 939//6 937//6
f 207//5 208//5 730//5 732//5
f 1//6 2//6 527//6 525//6
f 414//3 415//3 940//3 939//3
f 212//4 209//4 733//4 734//4
f 2//3 3//3 528//3 527//3
f 415//5 416//5 938//5 940//5
f 209//6 210//6 735//6 733//6
f 3//5 4//5 526//5 528//5
f 420//4 417//4 941//4 942//4
f 210//3 211//3 736//3 735//3
f 8//4 5//4 529//4 530//4
f 417//6 418//6 943//6 941//6
f 211//5 212//5 734//5 736//5
f 5//6 6//6 531//6 529//6
f 418//3 419//3 944//3 943//3
f 216//4 213//4 737//4 738//4
f 6//3 7//3 532//3 531//3
f 419//5 420//5 942//5 944//5
f 213//6 214//6 739//6 737//6
f 7//5 8//5 530//5 532//5
f 424//4 421//4 945//4 946//4
f 214//3 215//3 740//3 739//3
f 12//4 9//4 533//4 534//4
f 421//6 422//6 947//6 945//6
f 215//5 216//5 738//5 740//5
f 9//6 10//6 535//6 533//6
f 422//3 423//3 948//3 947//3
f 220//4 217//4 741//4 742//4
f 10//3 11//3 536//3 535//3
f 423//5 424//5 946//5 948//5
f 217//6 218//6 743//6 741//6
f 11//5 12//5 534//5 536//5
f 428//4 425//4 949//4 950//4
f 218//3 219//3 744//3 743//3
f 16//4 13//4 537//4 538//4
f 425//6 426//6 951//6 949//6
f 219//5 220//5 742//5 744//5
f 13//6 14//6 539//6 537//6
f 426//3 427//3 952//3 951//3
f 224//4 221//4 745//4 746//4
f 14//3 15//3 540//3 539//3
f 427//5 428//5 950//5 952//5
f 221//6 222//6 747//6 745//6
f 15//5 16//5 538//5 540//5
f 432//4 429//4 953//4 954//4
f 222//3 223//3 748//3 747//3
f 20//4 17//4 541//4 542//4
f 429//6 430//6 955//6 953//6
f 223//5 224//5 746//5 748//5
f 17//6 18//6 543//6 541//6
f 430//3 431//3 956//3 955//3
f 228//4 225//4 749//4 750//4
f 18//3 19//3 544//3 543//3
f 431//5 432//5 954//5 956//5
f 225//6 226//6 751//6 749//6
f 19//5 20//5 542//5 544//5
f 436//4 433//4 957//4 958//4
f 226//3 227//3 752//3 751//3
f 24//4 21//4 545//4 546//4
f 433//6 434//6 959//6 957//6
f 227//5 228//5 750//5 752//5
f 21//6 22//6 547//6 545//6
f 434//3 435//3 960//3 959//3
f 232//4 229//4 753//4 754//4
f 22//3 23//3 548//3 547//3
f 435//5 436//5 958//5 960//5
f 229//6 230//6 755//6 753//6
f 23//5 24//5 546//5 548//5
f 440//4 437//4 961//4 962//4
f 230//3 231//3 756//3 755//3
f 28//4 25//4 549//4 550//4
f 437//6 438//6 963//6 961//6
f 231//5 232//5 754//5 756//5
f 25//6 26//6 551//6 549//6
f 438//3 439//3 964//3 963//3
f 236//4 233//4 757//4 758//4
f 26//3 27//3 552//3 551//3
f 439//5 440//5 962//5 964//5
f 233//6 234//6 759//6 757//6
f 27//5 28//5 550//5 552//5
f 444//4 441//4 965//4 966//4
f 234//3 235//3 760//3 759//3
f 32//4 29//4 553//4 554//4
f 441//6 442//6 967//6 965//6
f 235//5 236//5 758//5 760//5
f 29//6 30//6 555//6 553//6
f 442//3 443//3 968//3 967//3
f 240//4 237//4 761//4 762//4
f 30//3 31//3 556//3 555//3
f 443//5 444//5 966//5 968//5
f 237//6 238//6 763//6 761//6
f 31//5 32//5 554//5 556//5
f 448//4 445//4 969//4 970//4
f 238//3 239//3 764//3 763//3
f 36//4 33//4 557//4 558//4
f 445//6 446//6 971//6 969//6
f 239//5 240//5 762//5 764//5
f 33//6 34//6 559//6 557//6
f 446//3 447//3 972//3 971//3
f 244//4 241//4 765//4 766//4
f 34//3 35//3 560//3 559//3
f 447//5 448//5 970//5 972//5
f 241//6 242//6 767//6 765//6
f 35//5 36//5 558//5 560//5
f 452//4 449//4 973//4 974//4
f 242//3 243//3 768//3 767//3
f 40//4 37//4 561//4 562//4
f 449//6 450//6 975//6 973//6
f 243//5 244//5 766//5 768//5
f 37//6 38//6 563//6 561//6
f 450//3 451//3 976//3 975//3
f 248//4 245//4 769//4 770//4
f 38//3 39//3 564//3 563//3
f 451//5 452//5 974//5 976//5
f 245//6 246//6 771//6 769//6
f 39//5 40//5 562//5 564//5
f 456//4 453//4 977//4 978//4
f 246//3 247//3 772//3 771//3
f 44//4 41//4 565//4 566//4
f 453//6 454//6 979//6 977//6
f 247//5 248//5 770//5 772//5
f 41//6 42//6 567//6 565//6
f 454//3 455//3 980//3 979//3
f 252//4 249//4 773//4 774//4
f 42//3 43//3 568//3 567//3
f 455//5 456//5 978//5 980//5
f 249//6 250//6 775//6 773//6
f 43//5 44//5 566//5 568//5
f 460//4 457//4 981//4 982//4
f 250//3 251//3 776//3 775//3
f 48//4 45//4 569//4 570//4
f 457//6 458//6 983//6 981//6
f 251//5 252//5 774//5 776//5
f 45//6 46//6 571//6 569//6
f 458//3 459//3 984//3 983//3
f 256//4 253//4 777//4 778//4
f 46//3 47//3 572//3 571//3
f 459//5 460//5 982//5 984//5
f 253//6 254//6 779//6 777//6
f 47//5 48//5 570//5 572//5
f 464//4 461//4 985//4 986//4
f 254//3 255//3 780//3 779//3
f 52//4 49//4 573//4 574//4
f 461//6 462//6 987//6 985//6
f 255//5 256//5 778//5 780//5
f 49//6 50//6 575//6 573//6
f 462//3 463//3 988//3 987//3
f 260//4 257//4 781//4 782//4
f 50//3 51//3 576//3 575//3
f 463//5 464//5 986//5 988//5
f 257//6 258//6 783//6 781//6
f 51//5 52//5 574//5 576//5
f 468//4 465//4 989//4 990//4
f 258//3 259//3 784//3 783//3
f 56//4 53//4 577//4 578//4
f 465//6 466//6 991//6 989//6
f 259//5 260//5 782//5 784//5
f 53//6 54//6 579//6 577//6
f 466//3 467//3 992//3 991//3
f 264//4 261//4 785//4 786//4
f 54//3 55//3 580//3 579//3
f 467//5 468//5 990//5 992//5
f 261//6 262//6 787//6 785//6
f 55//5 56//5 578//5 580//5
f 472//4 469//4 993//4 994//4
f 262//3 263//3 788//3 787//3
f 60//4 57//4 581//4 582//4
f 469//6 470//6 995//6 993//6
f 263//5 264//5 786//5 788//5
f 57//6 58//6 583//6 581//6
f 470//3 471//3 996//3 995//3
f 268//4 265//4 789//4 790//4
f 58//3 59//3 584//3 583//3
f 471//5 472//5 994//5 996//5
f 265//6 266//6 791//6 789//6
f 59//5 60//5 582//5 584//5
f 476//4 473//4 997//4 998//4
f 266//3 267//3 792//3 791//3
f 64//4 61//4 585//4 586//4
f 473//6 474//6 999//6 997//6
f 267//5 268//5 790//5 792//5
f 61//6 62//6 587//6 585//6
f 474//3 475//3 1000//3 999//3
f 272//4 269//4 793//4 794//4
f 62//3 63//3 588//3 587//3
f 475//5 476//5 998//5 1000//5
f 269//6 270//6 795//6 793//6
f 63//5 64//5 586//5 588//5
f 480//4 477//4 1001//4 1002//4
f 270//3 271//3 796//3 795//3
f 68//4 65//4 589//4 590//4
f 477//6 478//6 1003//6 1001//6
f 271//5 272//5 794//5 796//5
f 65//6 66//6 591//6 589//6
f 478//3 479//3 1004//3 1003//3
f 276//4 273//4 797//4 798//4
f 66//3 67//3 592//3 591//3
f 479//5 480//5 1002//5 1004//5
f 273//6 274//6 799//6 797//6
f 67//5 68//5 590//5 592//5
f 484//4 481//4 1005//4 1006//4
f 274//3 275//3 800//3 799//3
f 72//4 69//4 593//4 594//4
f 481//6 482//6 1007//6 1005//6
f 275//5 276//5 798//5 800//5
f 69//6 70//6 595//6 593//6
f 482//3 483//3 1008//3 1007//3
f 280//4 277//4 801//4 802//4
f 70//3 71//3 596//3 595//3
f 483//5 484//5 1006//5 1008//5
f 277//6 278//6 803//6 801//6
f 71//5 72//5 594//5 596//5
f 488//4 485//4 1009//4 1010//4
f 278//3 279//3 804//3 803//3
f 76//4 73//4 597//4 598//4
f 485//6 486//6 1011//6 1009//6
f 279//5 280//5 802//5 804//5
f 73//6 74//6 599//6 597//6
f 486//3 487//3 1012//3 1011//3
f 284//4 281//4 805//4 806//4
f 74//3 75//3 600//3 599//3
f 487//5 488//5 1010//5 1012//5
f 281//6 282//6 807//6 805//6
f 75//5 76//5 598//5 600//5
f 492//4 489//4 1013//4 1014//4
f 282//3 283//3 808//3 807//3
f 80//4 77//4 601//4 602//4
f 489//6 490//6 1015//6 1013//6
f 283//5 284//5 806//5 808//5
f 77//6 78//6 603//6 601//6
f 490//3 491//3 1016//3 1015//3
f 288//4 285//4 809//4 810//4
f 78//3 79//3 604//3 603//3
f 491//5 492//5 1014//5 1016//5
f 285//6 286//6 811//6 809//6
f 79//5 80//5 602//5 604//5
f 496//4 493//4 1017//4 1018//4
f 286//3 287//3 812//3 811//3
f 84//4 81//4 605//4 606//4
f 493//6 494//6 1019//6 1017//6
f 287//5 288//5 810//5 812//5
f 81//6 82//6 607//6 605//6
f 494//3 495//3 1020//3 1019//3
f 292//4 289//4 813//4 814//4
f 82//3 83//3 608//3 607//3
f 495//5 496//5 1018//5 1020//5
f 289//6 290//6 815//6 813//6
f 83//5 84//5 606//5 608//5
f 500//4 497//4 1021//4 1022//4
f 290//3 291//3 816//3 815//3
f 88//4 85//4 609//4 610//4
f 497//6 498//6 1023//6 1021//6
f 291//5 292//5 814//5 816//5
f 85//6 86//6 611//6 609//6
f 498//3 499//3 1024//3 1023//3
f 296//4 293//4 817//4 818//4
f 86//3 87//3 612//3 611//3
f 499//5 500//5 1022//5 1024//5
f 293//6 294//6 819//6 817//6
f 87//5 88//5 610//5 612//5
f 504//4 501//4 1025//4 1026//4
f 294//3 295//3 820//3 819//3
f 92//4 89//4 613//4 614//4
f 501//6 502//6 1027//6 1025//6
f 295//5 296//5 818//5 820//5
f 89//6 90//6 615//6 613//6
f 502//3 503//3 1028//3 1027//3
f 300//4 297//4 821//4 822//4
f 90//3 91//3 616//3 615//3
f 503//5 504//5 1026//5 1028//5
f 297//6 298//6 823//6 821//6
f 91//5 92//5 614//5 616//5
f 508//4 505//4 1029//4 1030//4
f 298//3 299//3 824//3 823//3
f 96//4 93//4 617//4 618//4
f 505//6 506//6 1031//6 1029//6
f 299//5 300//5 822//5 824//5
f 93//6 94//6 619//6 617//6
f 506//3 507//3 1032//3 1031//3
f 304//4 301//4 825//4 826//4
f 94//3 95//3 620//3 619//3
f 507//5 508//5 1030//5 1032//5
f 301//6 302//6 827//6 825//6
f 95//5 96//5 618//5 620//5
f 512//4 509//4 1033//4 1034//4
f 302//3 303//3 828//3 827//3
f 100//4 97//4 621//4 622//4
f 509//6 510//6 1035//6 1033//6
f 303//5 304//5 826//5 828//5
f 97//6 98//6 623//6 621//6
f 510//3 511//3 1036//3 1035//3
f 308//4 305//4 829//4 830//4
f 98//3 99//3 624//3 623//3
f 511//5 512//5 1034//5 1036//5
f 305//6 306//6 831//6 829//6
f 99//5 100//5 622//5 624//5
f 516//4 513//4 1037//4 1038//4
f 306//3 307//3 832//3 831//3
f 104//4 101//4 625//4 626//4
f 513//6 514//6 1039//6 1037//6
f 307//5 308//5 830//5 832//5
f 101//6 102//6 627//6 625//6
f 514//3 515//3 1040//3 1039//3
f 312//4 309//4 833//4 834//4
f 102//3 103//3 628//3 627//3
f 515//5 516//5 1038//5 1040//5
f 309//6 310//6 835//6 833//6
f 103//5 104//5 626//5 628//5
f 520//4 517//4 1041//4 1042//4
f 310//3 311//3 836//3 835//3
f 108//4 105//4 629//4 630//4
f 517//6 518//6 1043//6 1041//6
f 311//5 312//5 834//5 836//5
f 105//6 106//6 631//6 629//6
f 518//3 519//3 1044//3 1043//3
f 316//4 313//4 837//4 838//4
f 106//3 107//3 632//3 631//3
f 519//5 520//5 1042//5 1044//5
f 313//6 314//6 839//6 837//6
f 107//5 108//5 630//5 632//5
f 524//4 521//4 1045//4 1046//4
f 314//3 315//3 840//3 839//3
f 112//4 109//4 633//4 634//4
f 521//6 522//6 1047//6 1045//6
f 315//5 316//5 838//5 840//5
f 109//6 110//6 635//6 633//6
f 522//3 523//3 1048//3 1047//3
f 320//4 317//4 841//4 842//4
f 110//3 111//3 636//3 635//3
f 523//5 524//5 1046//5 1048//5
f 317//6 318//6 843//6 841//6
f 111//5 112//5 634//5 636//5
f 318//3 319//3 844//3 843//3
f 116//4 113//4 637//4 638//4
f 319//5 320//5 842//5 844//5
f 113//6 114//6 639//6 637//6
f 324//4 321//4 845//4 846//4
f 114//3 115//3 640//3 639//3
f 321//6 322//6 847//6 845//6
f 115//5 116//5 638//5 640//5
f 322//3 323//3 848//3 847//3
f 120//4 117//4 641//4 642//4
f 323//5 324//5 846//5 848//5
f 117//6 118//6 643//6 641//6
f 328//4 325//4 849//4 850//4
f 118//3 119//3 644//3 643//3
f 325//6 326//6 851//6 849//6
f 119//5 120//5 642//5 644//5
f 326//3 327//3 852//3 851//3
f 124//4 121//4 645//4 646//4
f 327//5 328//5 850//5 852//5
f 121//6 122//6 647//6 645//6
f 332//4 329//4 853//4 854//4
f 122//3 123//3 648//3 647//3
f 329//6 330//6 855//6 853//6
f 123//5 124//5 646//5 648//5
f 330//3 331//3 856//3 855//3
f 128//4 125//4 649//4 650//4
f 331//5 332//5 854//5 856//5
f 125//6 126//6 651//6 649//6
f 336//4 333//4 857//4 858//4
f 126//3 127//3 652//3 651//3
f 333//6 334//6 859//6 857//6
f 127//5 128//5 650//5 652//5
f 334//3 335//3 860//3 859//3
f 132//4 129//4 653//4 654//4
f 335//5 336//5 858//5 860//5
f 129//6 130//6 655//6 653//6
f 340//4 337//4 861//4 862//4
f 130//3 131//3 656//3 655//3
f 337//6 338//6 863//6 861//6
f 131//5 132//5 654//5 656//5
