<?xml version="1.0" encoding="UTF-8" ?>
<svg version="1.1" width="128" height="32" xmlns="http://www.w3.org/2000/svg" shape-rendering="crispEdges">
<rect x="33" y="8" width="1" height="1" fill="#000000" />
<rect x="51" y="8" width="1" height="1" fill="#000000" />
<rect x="32" y="9" width="1" height="1" fill="#000000" />
<rect x="33" y="9" width="1" height="1" fill="#000000" />
<rect x="34" y="9" width="1" height="1" fill="#000000" />
<rect x="51" y="9" width="1" height="1" fill="#000000" />
<rect x="52" y="9" width="1" height="1" fill="#000000" />
<rect x="32" y="10" width="1" height="1" fill="#000000" />
<rect x="34" y="10" width="1" height="1" fill="#000000" />
<rect x="50" y="10" width="1" height="1" fill="#000000" />
<rect x="52" y="10" width="1" height="1" fill="#000000" />
<rect x="53" y="10" width="1" height="1" fill="#000000" />
<rect x="31" y="11" width="1" height="1" fill="#000000" />
<rect x="35" y="11" width="1" height="1" fill="#000000" />
<rect x="50" y="11" width="1" height="1" fill="#000000" />
<rect x="53" y="11" width="1" height="1" fill="#000000" />
<rect x="30" y="12" width="1" height="1" fill="#000000" />
<rect x="31" y="12" width="1" height="1" fill="#000000" />
<rect x="35" y="12" width="1" height="1" fill="#000000" />
<rect x="36" y="12" width="1" height="1" fill="#000000" />
<rect x="49" y="12" width="1" height="1" fill="#000000" />
<rect x="53" y="12" width="1" height="1" fill="#000000" />
<rect x="30" y="13" width="1" height="1" fill="#000000" />
<rect x="36" y="13" width="1" height="1" fill="#000000" />
<rect x="37" y="13" width="1" height="1" fill="#000000" />
<rect x="49" y="13" width="1" height="1" fill="#000000" />
<rect x="54" y="13" width="1" height="1" fill="#000000" />
<rect x="30" y="14" width="1" height="1" fill="#000000" />
<rect x="37" y="14" width="1" height="1" fill="#000000" />
<rect x="30" y="15" width="1" height="1" fill="#000000" />
<rect x="40" y="18" width="1" height="1" fill="#000000" />
<rect x="41" y="18" width="1" height="1" fill="#000000" />
<rect x="46" y="18" width="1" height="1" fill="#000000" />
<rect x="41" y="19" width="1" height="1" fill="#000000" />
<rect x="42" y="19" width="1" height="1" fill="#000000" />
<rect x="43" y="19" width="1" height="1" fill="#000000" />
<rect x="44" y="19" width="1" height="1" fill="#000000" />
<rect x="45" y="19" width="1" height="1" fill="#000000" />
<rect x="46" y="19" width="1" height="1" fill="#000000" />
</svg>